#VRML V2.0 utf8

Shape {
  appearance Appearance {
    material Material {
      diffuseColor 1.0000 1.0000 1.0000
      specularColor 0.5020 0.5020 0.5020
      ambientIntensity 0.2
      transparency 0.0000
      shininess 0.5
    }
  }
  geometry IndexedFaceSet {
    ccw TRUE
    solid FALSE
    coord DEF co Coordinate {
      point [
        0.226194 -0.148637 0.122035,
        0.225420 -0.149193 0.122018,
        0.228635 -0.153322 0.062992,
        0.216535 -0.152358 0.121542,
        0.216535 -0.157480 0.062992,
        0.217914 -0.152283 0.121654,
        0.219833 -0.157202 0.062992,
        0.222118 -0.151125 0.121908,
        0.220911 -0.151656 0.121853,
        0.224475 -0.155808 0.062992,
        0.219414 -0.151969 0.121754,
        0.218957 -0.152065 0.121723,
        0.224589 -0.149791 0.122000,
        0.223711 -0.150423 0.121980,
        0.222363 -0.151017 0.121919,
        0.228550 -0.145863 0.122002,
        0.232063 -0.149895 0.062992,
        0.229794 -0.143735 0.121931,
        0.234548 -0.145735 0.062992,
        0.229822 -0.143652 0.121927,
        0.228251 -0.146374 0.122019,
        0.227960 -0.146694 0.122022,
        0.226757 -0.148017 0.122031,
        0.230825 -0.140226 0.121726,
        0.230773 -0.140687 0.121761,
        0.230757 -0.140833 0.121772,
        0.229907 -0.143396 0.121913,
        0.235943 -0.141093 0.062992,
        0.236220 -0.137795 0.062992,
        0.231098 -0.137795 0.121542,
        0.231098 0.137795 0.121542,
        0.236220 0.137795 0.062992,
        0.227377 0.147454 0.122035,
        0.227933 0.146680 0.122018,
        0.232063 0.149895 0.062992,
        0.231023 0.139174 0.121654,
        0.235943 0.141093 0.062992,
        0.230396 0.142171 0.121853,
        0.230709 0.140674 0.121754,
        0.230805 0.140217 0.121723,
        0.228531 0.145849 0.122000,
        0.229163 0.144971 0.121980,
        0.234548 0.145735 0.062992,
        0.229757 0.143623 0.121919,
        0.229865 0.143378 0.121908,
        0.224603 0.149810 0.122002,
        0.228635 0.153322 0.062992,
        0.222476 0.151054 0.121931,
        0.224475 0.155808 0.062992,
        0.222393 0.151081 0.121927,
        0.225115 0.149511 0.122019,
        0.225435 0.149220 0.122022,
        0.226757 0.148017 0.122031,
        0.218966 0.152085 0.121726,
        0.219428 0.152033 0.121761,
        0.219573 0.152017 0.121772,
        0.222137 0.151167 0.121913,
        0.219833 0.157202 0.062992,
        0.216535 0.157480 0.062992,
        0.216535 0.152358 0.121542,
        -0.216535 0.152358 0.121542,
        -0.216535 0.157480 0.062992,
        -0.226194 0.148637 0.122035,
        -0.225420 0.149193 0.122018,
        -0.228635 0.153322 0.062992,
        -0.217914 0.152283 0.121654,
        -0.219833 0.157202 0.062992,
        -0.222118 0.151125 0.121908,
        -0.220911 0.151656 0.121853,
        -0.224475 0.155808 0.062992,
        -0.219414 0.151969 0.121754,
        -0.218957 0.152065 0.121723,
        -0.224589 0.149791 0.122000,
        -0.223711 0.150423 0.121980,
        -0.222363 0.151017 0.121919,
        -0.228550 0.145863 0.122002,
        -0.232063 0.149895 0.062992,
        -0.229794 0.143735 0.121931,
        -0.234548 0.145735 0.062992,
        -0.229822 0.143652 0.121927,
        -0.228251 0.146374 0.122019,
        -0.227960 0.146694 0.122022,
        -0.226757 0.148017 0.122031,
        -0.230825 0.140226 0.121726,
        -0.230773 0.140687 0.121761,
        -0.230757 0.140833 0.121772,
        -0.229907 0.143396 0.121913,
        -0.235943 0.141093 0.062992,
        -0.236220 0.137795 0.062992,
        -0.231098 0.137795 0.121542,
        -0.231098 -0.137795 0.121542,
        -0.236220 -0.137795 0.062992,
        -0.227377 -0.147454 0.122035,
        -0.227933 -0.146680 0.122018,
        -0.232063 -0.149895 0.062992,
        -0.231023 -0.139174 0.121654,
        -0.235943 -0.141093 0.062992,
        -0.230396 -0.142171 0.121853,
        -0.230709 -0.140674 0.121754,
        -0.230805 -0.140217 0.121723,
        -0.228531 -0.145849 0.122000,
        -0.229163 -0.144971 0.121980,
        -0.234548 -0.145735 0.062992,
        -0.229757 -0.143623 0.121919,
        -0.229865 -0.143378 0.121908,
        -0.224603 -0.149810 0.122002,
        -0.228635 -0.153322 0.062992,
        -0.222476 -0.151054 0.121931,
        -0.224475 -0.155808 0.062992,
        -0.222393 -0.151081 0.121927,
        -0.225115 -0.149511 0.122019,
        -0.225435 -0.149220 0.122022,
        -0.226757 -0.148017 0.122031,
        -0.218966 -0.152085 0.121726,
        -0.219428 -0.152033 0.121761,
        -0.219573 -0.152017 0.121772,
        -0.222137 -0.151167 0.121913,
        -0.219833 -0.157202 0.062992,
        -0.216535 -0.157480 0.062992,
        -0.216535 -0.152358 0.121542,
        0.191878 -0.113138 0.157480,
        0.191878 0.113138 0.157480,
        -0.191878 -0.113138 0.157480,
        -0.191878 0.113138 0.157480,
        0.219644 0.131307 0.146022,
        0.219905 0.131469 0.145728,
        0.219086 0.132995 0.146424,
        0.196773 0.119122 0.156966,
        0.197315 0.118575 0.156993,
        0.202902 0.124162 0.155513,
        0.206989 0.136149 0.149992,
        0.206646 0.135626 0.150382,
        0.207806 0.134828 0.150891,
        0.227534 0.136078 0.134803,
        0.228230 0.136462 0.133054,
        0.227716 0.138919 0.133832,
        0.221620 0.132532 0.143801,
        0.222373 0.132999 0.142954,
        0.221591 0.134753 0.143749,
        0.223878 0.136362 0.140787,
        0.225932 0.137768 0.137495,
        0.224959 0.139836 0.138081,
        0.219439 0.137949 0.144613,
        0.218130 0.139389 0.144721,
        0.213424 0.134684 0.149577,
        0.230445 0.137603 0.126019,
        0.230545 0.137632 0.125337,
        0.230196 0.140413 0.125740,
        0.226254 0.147514 0.126076,
        0.225246 0.146506 0.130458,
        0.226930 0.144506 0.130403,
        0.227994 0.145415 0.126056,
        0.229324 0.143024 0.125961,
        0.229158 0.139802 0.129838,
        0.228249 0.142250 0.130209,
        0.226767 0.141180 0.134354,
        0.225472 0.143266 0.134661,
        0.223871 0.145131 0.134761,
        0.229256 0.137028 0.130473,
        0.229586 0.137187 0.129239,
        0.229999 0.137387 0.127690,
        0.220270 0.141530 0.141834,
        0.221676 0.139950 0.141717,
        0.222206 0.143466 0.138549,
        0.223707 0.141746 0.138432,
        0.220599 0.136397 0.144289,
        0.222887 0.138220 0.141369,
        0.222827 0.133280 0.142444,
        0.214485 0.133553 0.149494,
        0.210896 0.132156 0.151502,
        0.224594 0.134348 0.139927,
        0.225287 0.134766 0.138939,
        0.226544 0.135500 0.136625,
        0.226755 0.135623 0.136237,
        0.215473 0.132355 0.149244,
        0.212722 0.130144 0.151230,
        0.216384 0.131092 0.148827,
        0.213568 0.129066 0.150891,
        0.214876 0.128240 0.149972,
        0.216531 0.129328 0.148806,
        0.217197 0.129751 0.148210,
        0.209900 0.127838 0.152886,
        0.211417 0.125961 0.152228,
        0.212507 0.126682 0.151643,
        0.214349 0.127893 0.150344,
        0.197862 0.118033 0.156966,
        0.199517 0.118151 0.156732,
        0.204004 0.123041 0.155415,
        0.204074 0.121127 0.155544,
        0.205138 0.121826 0.155125,
        0.206898 0.122981 0.154434,
        0.208431 0.123988 0.153831,
        0.206578 0.131159 0.152886,
        0.208884 0.133982 0.151230,
        0.206208 0.134956 0.150882,
        0.204699 0.132674 0.152223,
        0.203698 0.131161 0.153113,
        0.201781 0.125263 0.155415,
        0.201723 0.128160 0.154446,
        0.200978 0.127029 0.154948,
        0.200568 0.126402 0.155144,
        0.198103 0.122634 0.156318,
        0.216410 0.151872 0.125156,
        0.219153 0.151456 0.125740,
        0.215220 0.149515 0.133069,
        0.217659 0.148976 0.133832,
        0.215926 0.150822 0.129505,
        0.218542 0.150418 0.129838,
        0.215954 0.150884 0.129252,
        0.216390 0.151827 0.125342,
        0.216128 0.151260 0.127692,
        0.215077 0.149250 0.133792,
        0.214363 0.148013 0.136238,
        0.216508 0.147192 0.137495,
        0.213076 0.145837 0.139913,
        0.215102 0.145137 0.140787,
        0.213875 0.147168 0.137907,
        0.214247 0.147812 0.136635,
        0.212331 0.144595 0.141783,
        0.211726 0.143614 0.142933,
        0.213493 0.142851 0.143749,
        0.211269 0.142875 0.143798,
        0.211735 0.140346 0.146424,
        0.215137 0.141859 0.144289,
        0.216960 0.144146 0.141369,
        0.210390 0.141451 0.145467,
        0.210211 0.141169 0.145729,
        0.209832 0.137644 0.148827,
        0.208504 0.138470 0.148235,
        0.208415 0.138330 0.148365,
        0.218576 0.146219 0.138081,
        0.219920 0.148027 0.134354,
        0.220990 0.149509 0.130209,
        0.221764 0.150584 0.125961,
        0.224155 0.149254 0.126056,
        0.211095 0.136733 0.149244,
        0.212293 0.135745 0.149494,
        0.216689 0.140699 0.144613,
        0.218691 0.142936 0.141717,
        0.220486 0.144967 0.138432,
        0.222006 0.146731 0.134661,
        0.223246 0.148189 0.130403,
        0.194836 0.115088 0.157369,
        0.198101 0.117224 0.156925,
        0.198447 0.117450 0.156878,
        0.208292 0.129552 0.153093,
        0.196190 0.119704 0.156865,
        0.195964 0.119359 0.156929,
        0.195114 0.118058 0.157172,
        -0.195976 0.119326 0.156760,
        -0.200581 0.126306 0.154886,
        -0.197504 0.121633 0.156492,
        -0.196208 0.119677 0.156720,
        -0.201746 0.128076 0.154278,
        -0.207004 0.136138 0.149978,
        -0.206646 0.135586 0.150307,
        -0.204701 0.132594 0.152094,
        -0.203087 0.130111 0.153578,
        -0.207394 0.136739 0.149619,
        -0.208437 0.138382 0.148094,
        -0.210149 0.141079 0.145590,
        -0.211318 0.142924 0.143847,
        -0.211279 0.142859 0.143938,
        -0.211721 0.143585 0.142920,
        -0.213053 0.145770 0.139852,
        -0.213947 0.147238 0.137792,
        -0.214246 0.147769 0.136620,
        -0.214349 0.147950 0.136219,
        -0.215170 0.149407 0.133003,
        -0.215683 0.150317 0.130996,
        -0.216046 0.151125 0.127659,
        -0.215877 0.150749 0.129211,
        -0.216494 0.152126 0.123533,
        -0.216302 0.151697 0.125301,
        0.230378 -0.137520 0.125296,
        0.229920 -0.137345 0.127679,
        0.224493 -0.134300 0.139843,
        0.226592 -0.135567 0.136685,
        0.226765 -0.135663 0.136256,
        0.228091 -0.136389 0.132981,
        0.229635 -0.137235 0.129167,
        0.222406 -0.133040 0.142981,
        0.221606 -0.132536 0.143792,
        0.219819 -0.131409 0.145604,
        0.217215 -0.129768 0.148243,
        0.211372 -0.125990 0.152198,
        0.214285 -0.127873 0.150227,
        0.214802 -0.128208 0.149876,
        0.206799 -0.122994 0.154267,
        0.210711 -0.125563 0.152646,
        0.205063 -0.121854 0.154987,
        0.203327 -0.120715 0.155707,
        0.194918 -0.115152 0.157347,
        0.198048 -0.117222 0.156737,
        0.198402 -0.117456 0.156667,
        -0.197862 0.118033 0.156966,
        -0.197315 0.118575 0.156993,
        -0.202902 0.124162 0.155513,
        -0.214889 0.128248 0.149992,
        -0.214366 0.127906 0.150382,
        -0.213568 0.129066 0.150891,
        -0.196773 0.119122 0.156966,
        -0.209832 0.137644 0.148827,
        -0.211095 0.136733 0.149244,
        -0.208884 0.133982 0.151230,
        -0.216689 0.140699 0.144613,
        -0.218130 0.139389 0.144721,
        -0.213424 0.134684 0.149577,
        -0.226254 0.147514 0.126076,
        -0.225246 0.146506 0.130458,
        -0.223246 0.148189 0.130403,
        -0.224155 0.149254 0.126056,
        -0.221764 0.150584 0.125961,
        -0.223871 0.145131 0.134761,
        -0.222006 0.146731 0.134661,
        -0.219153 0.151456 0.125740,
        -0.220990 0.149509 0.130209,
        -0.218542 0.150418 0.129838,
        -0.219920 0.148027 0.134354,
        -0.217659 0.148976 0.133832,
        -0.220270 0.141530 0.141834,
        -0.218691 0.142936 0.141717,
        -0.222206 0.143466 0.138549,
        -0.220486 0.144967 0.138432,
        -0.215137 0.141859 0.144289,
        -0.213493 0.142851 0.143749,
        -0.216960 0.144146 0.141369,
        -0.215102 0.145137 0.140787,
        -0.218576 0.146219 0.138081,
        -0.216508 0.147192 0.137495,
        -0.211735 0.140346 0.146424,
        -0.212293 0.135745 0.149494,
        -0.210896 0.132156 0.151502,
        -0.207806 0.134828 0.150891,
        -0.206578 0.131159 0.152886,
        -0.201781 0.125263 0.155415,
        -0.209900 0.127838 0.152886,
        -0.212722 0.130144 0.151230,
        -0.213696 0.127468 0.150882,
        -0.211414 0.125959 0.152223,
        -0.209901 0.124958 0.153113,
        -0.204004 0.123041 0.155415,
        -0.206900 0.122983 0.154446,
        -0.205769 0.122238 0.154948,
        -0.205142 0.121828 0.155144,
        -0.201374 0.119363 0.156318,
        -0.230612 0.137670 0.125156,
        -0.230196 0.140413 0.125740,
        -0.228255 0.136480 0.133069,
        -0.227716 0.138919 0.133832,
        -0.229563 0.137186 0.129505,
        -0.229158 0.139802 0.129838,
        -0.229624 0.137214 0.129252,
        -0.230567 0.137650 0.125342,
        -0.230000 0.137388 0.127692,
        -0.227990 0.136337 0.133792,
        -0.226753 0.135622 0.136238,
        -0.225932 0.137768 0.137495,
        -0.224577 0.134336 0.139913,
        -0.223878 0.136362 0.140787,
        -0.225908 0.135135 0.137907,
        -0.226552 0.135507 0.136635,
        -0.223335 0.133591 0.141783,
        -0.222354 0.132985 0.142933,
        -0.221591 0.134753 0.143749,
        -0.221615 0.132529 0.143798,
        -0.219086 0.132995 0.146424,
        -0.220599 0.136397 0.144289,
        -0.222887 0.138220 0.141369,
        -0.220191 0.131650 0.145467,
        -0.219909 0.131471 0.145729,
        -0.216384 0.131092 0.148827,
        -0.217210 0.129764 0.148235,
        -0.217070 0.129675 0.148365,
        -0.224959 0.139836 0.138081,
        -0.226767 0.141180 0.134354,
        -0.228249 0.142250 0.130209,
        -0.229324 0.143024 0.125961,
        -0.227994 0.145415 0.126056,
        -0.215473 0.132355 0.149244,
        -0.214485 0.133553 0.149494,
        -0.219439 0.137949 0.144613,
        -0.221676 0.139950 0.141717,
        -0.223707 0.141746 0.138432,
        -0.225472 0.143266 0.134661,
        -0.226930 0.144506 0.130403,
        -0.208292 0.129552 0.153093,
        -0.198444 0.117450 0.156865,
        -0.198099 0.117224 0.156929,
        -0.196798 0.116374 0.157172,
        0.210047 -0.140904 0.146022,
        0.210209 -0.141165 0.145728,
        0.211735 -0.140346 0.146424,
        0.227716 -0.138919 0.133832,
        0.229158 -0.139802 0.129838,
        0.197862 -0.118033 0.156966,
        0.197315 -0.118575 0.156993,
        0.202902 -0.124162 0.155513,
        0.213568 -0.129066 0.150891,
        0.214819 -0.148794 0.134803,
        0.215202 -0.149490 0.133054,
        0.217659 -0.148976 0.133832,
        0.211272 -0.142880 0.143801,
        0.211739 -0.143633 0.142954,
        0.213493 -0.142851 0.143749,
        0.215102 -0.145137 0.140787,
        0.216508 -0.147192 0.137495,
        0.218576 -0.146219 0.138081,
        0.216689 -0.140699 0.144613,
        0.218130 -0.139389 0.144721,
        0.213424 -0.134684 0.149577,
        0.216343 -0.151705 0.126019,
        0.216372 -0.151805 0.125337,
        0.219153 -0.151456 0.125740,
        0.226254 -0.147514 0.126076,
        0.225246 -0.146506 0.130458,
        0.223246 -0.148189 0.130403,
        0.224155 -0.149254 0.126056,
        0.221764 -0.150584 0.125961,
        0.218542 -0.150418 0.129838,
        0.220990 -0.149509 0.130209,
        0.219920 -0.148027 0.134354,
        0.222006 -0.146731 0.134661,
        0.223871 -0.145131 0.134761,
        0.215768 -0.150516 0.130473,
        0.215927 -0.150846 0.129239,
        0.216128 -0.151259 0.127690,
        0.220270 -0.141530 0.141834,
        0.218691 -0.142936 0.141717,
        0.222206 -0.143466 0.138549,
        0.220486 -0.144967 0.138432,
        0.215137 -0.141859 0.144289,
        0.216960 -0.144146 0.141369,
        0.212020 -0.144087 0.142444,
        0.212293 -0.135745 0.149494,
        0.210896 -0.132156 0.151502,
        0.213088 -0.145854 0.139927,
        0.213506 -0.146546 0.138939,
        0.214241 -0.147804 0.136625,
        0.214363 -0.148015 0.136237,
        0.211095 -0.136733 0.149244,
        0.208884 -0.133982 0.151230,
        0.209832 -0.137644 0.148827,
        0.207806 -0.134828 0.150891,
        0.206980 -0.136136 0.149972,
        0.208068 -0.137791 0.148806,
        0.208491 -0.138457 0.148210,
        0.206578 -0.131159 0.152886,
        0.204702 -0.132677 0.152228,
        0.205422 -0.133767 0.151643,
        0.206633 -0.135609 0.150344,
        0.196773 -0.119122 0.156966,
        0.196891 -0.120777 0.156732,
        0.201781 -0.125263 0.155415,
        0.199867 -0.125333 0.155544,
        0.200566 -0.126398 0.155125,
        0.201722 -0.128158 0.154434,
        0.202728 -0.129691 0.153831,
        0.204004 -0.123041 0.155415,
        0.209900 -0.127838 0.152886,
        0.230196 -0.140413 0.125740,
        0.225932 -0.137768 0.137495,
        0.223878 -0.136362 0.140787,
        0.220599 -0.136397 0.144289,
        0.222887 -0.138220 0.141369,
        0.216384 -0.131092 0.148827,
        0.219086 -0.132995 0.146424,
        0.221591 -0.134753 0.143749,
        0.224959 -0.139836 0.138081,
        0.226767 -0.141180 0.134354,
        0.228249 -0.142250 0.130209,
        0.229324 -0.143024 0.125961,
        0.227994 -0.145415 0.126056,
        0.226930 -0.144506 0.130403,
        0.225472 -0.143266 0.134661,
        0.223707 -0.141746 0.138432,
        0.221676 -0.139950 0.141717,
        0.219439 -0.137949 0.144613,
        0.214485 -0.133553 0.149494,
        0.215473 -0.132355 0.149244,
        0.212722 -0.130144 0.151230,
        0.193828 -0.116096 0.157369,
        0.195965 -0.119361 0.156925,
        0.196191 -0.119707 0.156878,
        0.208292 -0.129552 0.153093,
        -0.198066 -0.117236 0.156760,
        -0.206816 -0.123006 0.154278,
        -0.205046 -0.121841 0.154886,
        -0.198417 -0.117468 0.156720,
        -0.200374 -0.118764 0.156492,
        -0.211335 -0.125961 0.152094,
        -0.214326 -0.127905 0.150307,
        -0.208851 -0.124347 0.153578,
        -0.221664 -0.132578 0.143847,
        -0.221599 -0.132539 0.143938,
        -0.214878 -0.128264 0.149978,
        -0.215479 -0.128654 0.149619,
        -0.217122 -0.129697 0.148094,
        -0.219819 -0.131409 0.145590,
        -0.226691 -0.135609 0.136219,
        -0.225978 -0.135207 0.137792,
        -0.224511 -0.134313 0.139852,
        -0.222325 -0.132981 0.142920,
        -0.226509 -0.135506 0.136620,
        -0.228148 -0.136430 0.133003,
        -0.229057 -0.136943 0.130996,
        -0.229865 -0.137306 0.127659,
        -0.229489 -0.137137 0.129211,
        -0.230437 -0.137562 0.125301,
        -0.230866 -0.137754 0.123533,
        -0.216260 -0.151637 0.125296,
        -0.216085 -0.151180 0.127679,
        -0.215976 -0.150895 0.129167,
        -0.214403 -0.148025 0.136256,
        -0.215130 -0.149351 0.132981,
        -0.214307 -0.147852 0.136685,
        -0.211276 -0.142866 0.143792,
        -0.211780 -0.143665 0.142981,
        -0.213040 -0.145752 0.139843,
        -0.210149 -0.141079 0.145604,
        -0.208508 -0.138475 0.148243,
        -0.206613 -0.135544 0.150227,
        -0.206948 -0.136062 0.149876,
        -0.204730 -0.132632 0.152198,
        -0.204303 -0.131970 0.152646,
        -0.201734 -0.128059 0.154267,
        -0.200594 -0.126322 0.154987,
        -0.199455 -0.124587 0.155707,
        -0.193892 -0.116178 0.157347,
        -0.195963 -0.119308 0.156737,
        -0.196196 -0.119661 0.156667,
        -0.217659 -0.148976 0.133832,
        -0.218542 -0.150418 0.129838,
        -0.196773 -0.119122 0.156966,
        -0.197315 -0.118575 0.156993,
        -0.202902 -0.124162 0.155513,
        -0.207806 -0.134828 0.150891,
        -0.197862 -0.118033 0.156966,
        -0.216384 -0.131092 0.148827,
        -0.215473 -0.132355 0.149244,
        -0.212722 -0.130144 0.151230,
        -0.219439 -0.137949 0.144613,
        -0.218130 -0.139389 0.144721,
        -0.213424 -0.134684 0.149577,
        -0.226254 -0.147514 0.126076,
        -0.225246 -0.146506 0.130458,
        -0.226930 -0.144506 0.130403,
        -0.227994 -0.145415 0.126056,
        -0.229324 -0.143024 0.125961,
        -0.223871 -0.145131 0.134761,
        -0.225472 -0.143266 0.134661,
        -0.230196 -0.140413 0.125740,
        -0.228249 -0.142250 0.130209,
        -0.229158 -0.139802 0.129838,
        -0.226767 -0.141180 0.134354,
        -0.227716 -0.138919 0.133832,
        -0.220270 -0.141530 0.141834,
        -0.221676 -0.139950 0.141717,
        -0.222206 -0.143466 0.138549,
        -0.223707 -0.141746 0.138432,
        -0.220599 -0.136397 0.144289,
        -0.221591 -0.134753 0.143749,
        -0.222887 -0.138220 0.141369,
        -0.223878 -0.136362 0.140787,
        -0.224959 -0.139836 0.138081,
        -0.225932 -0.137768 0.137495,
        -0.219086 -0.132995 0.146424,
        -0.214485 -0.133553 0.149494,
        -0.210896 -0.132156 0.151502,
        -0.213568 -0.129066 0.150891,
        -0.209900 -0.127838 0.152886,
        -0.204004 -0.123041 0.155415,
        -0.201781 -0.125263 0.155415,
        -0.206578 -0.131159 0.152886,
        -0.219153 -0.151456 0.125740,
        -0.216508 -0.147192 0.137495,
        -0.215102 -0.145137 0.140787,
        -0.215137 -0.141859 0.144289,
        -0.216960 -0.144146 0.141369,
        -0.209832 -0.137644 0.148827,
        -0.211735 -0.140346 0.146424,
        -0.213493 -0.142851 0.143749,
        -0.218576 -0.146219 0.138081,
        -0.219920 -0.148027 0.134354,
        -0.220990 -0.149509 0.130209,
        -0.221764 -0.150584 0.125961,
        -0.224155 -0.149254 0.126056,
        -0.223246 -0.148189 0.130403,
        -0.222006 -0.146731 0.134661,
        -0.220486 -0.144967 0.138432,
        -0.218691 -0.142936 0.141717,
        -0.216689 -0.140699 0.144613,
        -0.212293 -0.135745 0.149494,
        -0.211095 -0.136733 0.149244,
        -0.208884 -0.133982 0.151230,
        -0.208292 -0.129552 0.153093,
      ]
    }
    coordIndex [
      0, 1, 2, -1,
      3, 4, 5, -1,
      5, 4, 6, -1,
      7, 8, 9, -1,
      9, 8, 10, -1,
      9, 10, 6, -1,
      6, 10, 11, -1,
      6, 11, 5, -1,
      1, 12, 2, -1,
      2, 12, 13, -1,
      2, 13, 9, -1,
      9, 13, 14, -1,
      9, 14, 7, -1,
      15, 16, 17, -1,
      17, 16, 18, -1,
      17, 18, 19, -1,
      15, 20, 16, -1,
      16, 20, 21, -1,
      16, 21, 2, -1,
      2, 21, 22, -1,
      2, 22, 0, -1,
      23, 24, 18, -1,
      24, 25, 18, -1,
      18, 25, 26, -1,
      18, 26, 19, -1,
      18, 27, 23, -1,
      23, 27, 28, -1,
      23, 28, 29, -1,
      29, 28, 30, -1,
      30, 28, 31, -1,
      32, 33, 34, -1,
      30, 31, 35, -1,
      35, 31, 36, -1,
      37, 38, 36, -1,
      36, 38, 39, -1,
      36, 39, 35, -1,
      33, 40, 34, -1,
      34, 40, 41, -1,
      34, 41, 42, -1,
      42, 41, 43, -1,
      42, 43, 36, -1,
      36, 43, 44, -1,
      36, 44, 37, -1,
      45, 46, 47, -1,
      47, 46, 48, -1,
      47, 48, 49, -1,
      45, 50, 46, -1,
      46, 50, 51, -1,
      46, 51, 34, -1,
      34, 51, 52, -1,
      34, 52, 32, -1,
      53, 54, 48, -1,
      54, 55, 48, -1,
      48, 55, 56, -1,
      48, 56, 49, -1,
      48, 57, 53, -1,
      53, 57, 58, -1,
      53, 58, 59, -1,
      59, 58, 60, -1,
      60, 58, 61, -1,
      62, 63, 64, -1,
      60, 61, 65, -1,
      65, 61, 66, -1,
      67, 68, 69, -1,
      69, 68, 70, -1,
      69, 70, 66, -1,
      66, 70, 71, -1,
      66, 71, 65, -1,
      63, 72, 64, -1,
      64, 72, 73, -1,
      64, 73, 69, -1,
      69, 73, 74, -1,
      69, 74, 67, -1,
      75, 76, 77, -1,
      77, 76, 78, -1,
      77, 78, 79, -1,
      75, 80, 76, -1,
      76, 80, 81, -1,
      76, 81, 64, -1,
      64, 81, 82, -1,
      64, 82, 62, -1,
      83, 84, 78, -1,
      84, 85, 78, -1,
      78, 85, 86, -1,
      78, 86, 79, -1,
      78, 87, 83, -1,
      83, 87, 88, -1,
      83, 88, 89, -1,
      89, 88, 90, -1,
      90, 88, 91, -1,
      92, 93, 94, -1,
      90, 91, 95, -1,
      95, 91, 96, -1,
      97, 98, 96, -1,
      96, 98, 99, -1,
      96, 99, 95, -1,
      93, 100, 94, -1,
      94, 100, 101, -1,
      94, 101, 102, -1,
      102, 101, 103, -1,
      102, 103, 96, -1,
      96, 103, 104, -1,
      96, 104, 97, -1,
      105, 106, 107, -1,
      107, 106, 108, -1,
      107, 108, 109, -1,
      105, 110, 106, -1,
      106, 110, 111, -1,
      106, 111, 94, -1,
      94, 111, 112, -1,
      94, 112, 92, -1,
      113, 114, 108, -1,
      114, 115, 108, -1,
      108, 115, 116, -1,
      108, 116, 109, -1,
      108, 117, 113, -1,
      113, 117, 118, -1,
      113, 118, 119, -1,
      119, 118, 3, -1,
      3, 118, 4, -1,
      120, 121, 122, -1,
      122, 121, 123, -1,
      6, 4, 27, -1,
      36, 31, 58, -1,
      58, 4, 61, -1,
      61, 4, 118, -1,
      61, 118, 91, -1,
      58, 31, 4, -1,
      4, 31, 28, -1,
      4, 28, 27, -1,
      91, 118, 96, -1,
      96, 118, 117, -1,
      96, 117, 108, -1,
      48, 46, 34, -1,
      106, 94, 108, -1,
      108, 94, 102, -1,
      108, 102, 96, -1,
      58, 57, 36, -1,
      36, 57, 48, -1,
      36, 48, 42, -1,
      42, 48, 34, -1,
      27, 18, 6, -1,
      6, 18, 16, -1,
      6, 16, 9, -1,
      9, 16, 2, -1,
      91, 88, 61, -1,
      61, 88, 87, -1,
      61, 87, 66, -1,
      66, 87, 78, -1,
      66, 78, 69, -1,
      69, 78, 76, -1,
      69, 76, 64, -1,
      124, 125, 126, -1,
      127, 128, 129, -1,
      130, 131, 132, -1,
      133, 134, 135, -1,
      136, 137, 138, -1,
      139, 140, 141, -1,
      142, 143, 144, -1,
      145, 146, 147, -1,
      148, 149, 150, -1,
      40, 33, 151, -1,
      151, 33, 32, -1,
      151, 32, 148, -1,
      40, 151, 41, -1,
      41, 151, 152, -1,
      41, 152, 43, -1,
      39, 38, 147, -1,
      147, 38, 37, -1,
      147, 37, 152, -1,
      152, 37, 44, -1,
      152, 44, 43, -1,
      39, 147, 35, -1,
      35, 147, 146, -1,
      35, 146, 30, -1,
      134, 153, 135, -1,
      135, 153, 154, -1,
      135, 154, 155, -1,
      155, 154, 150, -1,
      155, 150, 156, -1,
      156, 150, 149, -1,
      156, 149, 157, -1,
      134, 158, 153, -1,
      153, 158, 159, -1,
      153, 159, 160, -1,
      148, 150, 151, -1,
      151, 150, 154, -1,
      151, 154, 152, -1,
      152, 154, 153, -1,
      152, 153, 147, -1,
      147, 153, 160, -1,
      147, 160, 145, -1,
      143, 142, 161, -1,
      161, 142, 162, -1,
      161, 162, 163, -1,
      163, 162, 164, -1,
      163, 164, 157, -1,
      125, 136, 126, -1,
      126, 136, 138, -1,
      126, 138, 165, -1,
      165, 138, 166, -1,
      137, 167, 138, -1,
      138, 167, 139, -1,
      138, 139, 166, -1,
      166, 139, 141, -1,
      141, 164, 166, -1,
      166, 164, 162, -1,
      166, 162, 165, -1,
      165, 162, 142, -1,
      165, 142, 168, -1,
      168, 142, 144, -1,
      168, 144, 169, -1,
      167, 170, 139, -1,
      139, 170, 171, -1,
      139, 171, 140, -1,
      140, 171, 172, -1,
      140, 172, 173, -1,
      157, 164, 156, -1,
      156, 164, 141, -1,
      156, 141, 155, -1,
      155, 141, 140, -1,
      155, 140, 135, -1,
      135, 140, 173, -1,
      135, 173, 133, -1,
      174, 175, 176, -1,
      176, 175, 177, -1,
      177, 178, 176, -1,
      176, 178, 179, -1,
      176, 179, 180, -1,
      181, 182, 175, -1,
      175, 182, 183, -1,
      175, 183, 177, -1,
      177, 183, 184, -1,
      177, 184, 178, -1,
      185, 186, 187, -1,
      187, 186, 188, -1,
      188, 189, 187, -1,
      187, 189, 190, -1,
      187, 190, 181, -1,
      181, 190, 191, -1,
      181, 191, 182, -1,
      192, 193, 194, -1,
      194, 195, 192, -1,
      192, 195, 196, -1,
      192, 196, 197, -1,
      197, 196, 198, -1,
      198, 199, 197, -1,
      197, 199, 200, -1,
      197, 200, 201, -1,
      53, 59, 202, -1,
      55, 54, 203, -1,
      203, 54, 53, -1,
      204, 205, 206, -1,
      206, 205, 207, -1,
      206, 207, 208, -1,
      53, 202, 203, -1,
      203, 202, 209, -1,
      203, 209, 207, -1,
      207, 209, 210, -1,
      207, 210, 208, -1,
      204, 211, 205, -1,
      205, 211, 212, -1,
      205, 212, 213, -1,
      214, 215, 216, -1,
      216, 215, 213, -1,
      216, 213, 217, -1,
      217, 213, 212, -1,
      218, 219, 220, -1,
      220, 219, 221, -1,
      220, 221, 222, -1,
      223, 224, 215, -1,
      221, 225, 222, -1,
      222, 225, 226, -1,
      222, 226, 227, -1,
      227, 226, 228, -1,
      227, 228, 229, -1,
      215, 224, 213, -1,
      213, 224, 230, -1,
      213, 230, 205, -1,
      205, 230, 231, -1,
      205, 231, 207, -1,
      207, 231, 232, -1,
      207, 232, 203, -1,
      203, 232, 233, -1,
      203, 233, 55, -1,
      47, 49, 233, -1,
      233, 49, 56, -1,
      233, 56, 55, -1,
      52, 51, 234, -1,
      234, 51, 50, -1,
      234, 50, 45, -1,
      131, 194, 132, -1,
      132, 194, 193, -1,
      132, 193, 235, -1,
      235, 193, 236, -1,
      235, 236, 223, -1,
      223, 236, 237, -1,
      223, 237, 224, -1,
      224, 237, 238, -1,
      224, 238, 230, -1,
      230, 238, 239, -1,
      230, 239, 231, -1,
      231, 239, 240, -1,
      231, 240, 232, -1,
      232, 240, 241, -1,
      232, 241, 233, -1,
      233, 241, 234, -1,
      233, 234, 47, -1,
      47, 234, 45, -1,
      214, 218, 215, -1,
      215, 218, 220, -1,
      215, 220, 223, -1,
      223, 220, 222, -1,
      223, 222, 235, -1,
      235, 222, 227, -1,
      235, 227, 132, -1,
      132, 227, 229, -1,
      132, 229, 130, -1,
      185, 121, 242, -1,
      128, 121, 185, -1,
      242, 243, 185, -1,
      185, 243, 244, -1,
      185, 244, 186, -1,
      128, 185, 129, -1,
      129, 185, 187, -1,
      129, 187, 245, -1,
      245, 187, 181, -1,
      245, 181, 169, -1,
      169, 181, 175, -1,
      169, 175, 168, -1,
      168, 175, 174, -1,
      168, 174, 165, -1,
      165, 174, 176, -1,
      165, 176, 126, -1,
      126, 176, 180, -1,
      126, 180, 124, -1,
      246, 247, 127, -1,
      127, 247, 248, -1,
      127, 248, 128, -1,
      128, 248, 121, -1,
      32, 52, 148, -1,
      148, 52, 234, -1,
      148, 234, 149, -1,
      149, 234, 241, -1,
      149, 241, 157, -1,
      157, 241, 240, -1,
      157, 240, 163, -1,
      163, 240, 239, -1,
      163, 239, 161, -1,
      161, 239, 238, -1,
      161, 238, 143, -1,
      143, 238, 237, -1,
      143, 237, 144, -1,
      144, 237, 236, -1,
      144, 236, 169, -1,
      169, 236, 193, -1,
      169, 193, 245, -1,
      245, 193, 192, -1,
      245, 192, 129, -1,
      129, 192, 197, -1,
      129, 197, 127, -1,
      127, 197, 201, -1,
      127, 201, 246, -1,
      123, 121, 249, -1,
      249, 121, 248, -1,
      249, 248, 247, -1,
      250, 251, 247, -1,
      247, 251, 252, -1,
      247, 252, 249, -1,
      201, 200, 253, -1,
      250, 247, 253, -1,
      253, 247, 246, -1,
      253, 246, 201, -1,
      254, 255, 198, -1,
      198, 255, 256, -1,
      200, 199, 253, -1,
      253, 199, 198, -1,
      253, 198, 257, -1,
      257, 198, 256, -1,
      198, 196, 254, -1,
      254, 196, 195, -1,
      254, 195, 194, -1,
      194, 131, 254, -1,
      254, 131, 130, -1,
      254, 130, 258, -1,
      258, 130, 229, -1,
      258, 229, 259, -1,
      259, 229, 228, -1,
      259, 228, 260, -1,
      226, 261, 228, -1,
      228, 261, 262, -1,
      228, 262, 260, -1,
      218, 214, 263, -1,
      263, 214, 264, -1,
      226, 225, 261, -1,
      261, 225, 221, -1,
      261, 221, 263, -1,
      263, 221, 219, -1,
      263, 219, 218, -1,
      265, 264, 266, -1,
      266, 264, 214, -1,
      266, 214, 267, -1,
      267, 214, 216, -1,
      267, 216, 217, -1,
      217, 212, 267, -1,
      267, 212, 211, -1,
      267, 211, 268, -1,
      268, 211, 204, -1,
      268, 204, 269, -1,
      206, 270, 204, -1,
      204, 270, 271, -1,
      204, 271, 269, -1,
      60, 272, 59, -1,
      59, 272, 273, -1,
      59, 273, 202, -1,
      206, 208, 270, -1,
      270, 208, 210, -1,
      270, 210, 273, -1,
      273, 210, 209, -1,
      273, 209, 202, -1,
      274, 29, 30, -1,
      160, 275, 145, -1,
      145, 275, 274, -1,
      145, 274, 146, -1,
      146, 274, 30, -1,
      160, 159, 275, -1,
      275, 159, 158, -1,
      275, 158, 134, -1,
      173, 172, 276, -1,
      276, 172, 171, -1,
      276, 171, 170, -1,
      276, 277, 173, -1,
      173, 277, 278, -1,
      173, 278, 133, -1,
      133, 278, 279, -1,
      133, 279, 134, -1,
      134, 279, 280, -1,
      134, 280, 275, -1,
      170, 167, 276, -1,
      276, 167, 137, -1,
      276, 137, 281, -1,
      281, 137, 136, -1,
      281, 136, 282, -1,
      282, 136, 125, -1,
      282, 125, 283, -1,
      283, 125, 124, -1,
      124, 180, 283, -1,
      283, 180, 179, -1,
      283, 179, 284, -1,
      284, 179, 178, -1,
      285, 286, 178, -1,
      178, 286, 287, -1,
      178, 287, 284, -1,
      184, 288, 178, -1,
      178, 288, 289, -1,
      178, 289, 285, -1,
      184, 183, 288, -1,
      288, 183, 182, -1,
      288, 182, 191, -1,
      191, 190, 288, -1,
      288, 190, 189, -1,
      288, 189, 188, -1,
      188, 186, 288, -1,
      288, 186, 244, -1,
      288, 244, 290, -1,
      290, 244, 291, -1,
      121, 120, 242, -1,
      242, 120, 292, -1,
      242, 292, 243, -1,
      243, 292, 293, -1,
      243, 293, 244, -1,
      244, 293, 294, -1,
      244, 294, 291, -1,
      295, 296, 297, -1,
      298, 299, 300, -1,
      296, 123, 301, -1,
      302, 303, 304, -1,
      305, 306, 307, -1,
      308, 309, 310, -1,
      63, 62, 311, -1,
      311, 62, 308, -1,
      67, 74, 312, -1,
      312, 74, 73, -1,
      312, 73, 311, -1,
      311, 73, 72, -1,
      311, 72, 63, -1,
      309, 313, 314, -1,
      67, 312, 68, -1,
      68, 312, 315, -1,
      68, 315, 70, -1,
      272, 60, 65, -1,
      308, 310, 311, -1,
      311, 310, 316, -1,
      311, 316, 312, -1,
      312, 316, 317, -1,
      312, 317, 315, -1,
      309, 314, 310, -1,
      310, 314, 318, -1,
      310, 318, 316, -1,
      316, 318, 319, -1,
      316, 319, 317, -1,
      317, 319, 268, -1,
      317, 268, 269, -1,
      65, 71, 272, -1,
      272, 71, 70, -1,
      272, 70, 273, -1,
      273, 70, 315, -1,
      273, 315, 270, -1,
      270, 315, 317, -1,
      270, 317, 271, -1,
      271, 317, 269, -1,
      306, 305, 320, -1,
      320, 305, 321, -1,
      320, 321, 322, -1,
      322, 321, 323, -1,
      322, 323, 313, -1,
      324, 325, 326, -1,
      326, 325, 327, -1,
      326, 327, 328, -1,
      328, 327, 329, -1,
      324, 330, 325, -1,
      325, 330, 260, -1,
      325, 260, 262, -1,
      262, 261, 325, -1,
      325, 261, 263, -1,
      325, 263, 327, -1,
      327, 263, 264, -1,
      327, 264, 329, -1,
      328, 323, 326, -1,
      326, 323, 321, -1,
      326, 321, 324, -1,
      324, 321, 305, -1,
      324, 305, 331, -1,
      331, 305, 307, -1,
      331, 307, 332, -1,
      264, 265, 329, -1,
      329, 265, 266, -1,
      329, 266, 267, -1,
      313, 323, 314, -1,
      314, 323, 328, -1,
      314, 328, 318, -1,
      318, 328, 329, -1,
      318, 329, 319, -1,
      319, 329, 267, -1,
      319, 267, 268, -1,
      259, 302, 258, -1,
      258, 302, 333, -1,
      256, 255, 333, -1,
      333, 255, 254, -1,
      333, 254, 258, -1,
      302, 304, 333, -1,
      333, 304, 334, -1,
      333, 334, 256, -1,
      335, 301, 251, -1,
      251, 250, 335, -1,
      335, 250, 253, -1,
      335, 253, 334, -1,
      334, 253, 257, -1,
      334, 257, 256, -1,
      336, 337, 338, -1,
      338, 339, 336, -1,
      336, 339, 340, -1,
      336, 340, 341, -1,
      341, 340, 342, -1,
      342, 343, 341, -1,
      341, 343, 344, -1,
      341, 344, 345, -1,
      83, 89, 346, -1,
      85, 84, 347, -1,
      347, 84, 83, -1,
      348, 349, 350, -1,
      350, 349, 351, -1,
      350, 351, 352, -1,
      83, 346, 347, -1,
      347, 346, 353, -1,
      347, 353, 351, -1,
      351, 353, 354, -1,
      351, 354, 352, -1,
      348, 355, 349, -1,
      349, 355, 356, -1,
      349, 356, 357, -1,
      358, 359, 360, -1,
      360, 359, 357, -1,
      360, 357, 361, -1,
      361, 357, 356, -1,
      362, 363, 364, -1,
      364, 363, 365, -1,
      364, 365, 366, -1,
      367, 368, 359, -1,
      365, 369, 366, -1,
      366, 369, 370, -1,
      366, 370, 371, -1,
      371, 370, 372, -1,
      371, 372, 373, -1,
      359, 368, 357, -1,
      357, 368, 374, -1,
      357, 374, 349, -1,
      349, 374, 375, -1,
      349, 375, 351, -1,
      351, 375, 376, -1,
      351, 376, 347, -1,
      347, 376, 377, -1,
      347, 377, 85, -1,
      77, 79, 377, -1,
      377, 79, 86, -1,
      377, 86, 85, -1,
      82, 81, 378, -1,
      378, 81, 80, -1,
      378, 80, 75, -1,
      299, 338, 300, -1,
      300, 338, 337, -1,
      300, 337, 379, -1,
      379, 337, 380, -1,
      379, 380, 367, -1,
      367, 380, 381, -1,
      367, 381, 368, -1,
      368, 381, 382, -1,
      368, 382, 374, -1,
      374, 382, 383, -1,
      374, 383, 375, -1,
      375, 383, 384, -1,
      375, 384, 376, -1,
      376, 384, 385, -1,
      376, 385, 377, -1,
      377, 385, 378, -1,
      377, 378, 77, -1,
      77, 378, 75, -1,
      358, 362, 359, -1,
      359, 362, 364, -1,
      359, 364, 367, -1,
      367, 364, 366, -1,
      367, 366, 379, -1,
      379, 366, 371, -1,
      379, 371, 300, -1,
      300, 371, 373, -1,
      300, 373, 298, -1,
      123, 249, 301, -1,
      301, 249, 252, -1,
      301, 252, 251, -1,
      296, 301, 297, -1,
      297, 301, 335, -1,
      297, 335, 386, -1,
      386, 335, 334, -1,
      386, 334, 332, -1,
      332, 334, 304, -1,
      332, 304, 331, -1,
      331, 304, 303, -1,
      331, 303, 324, -1,
      324, 303, 302, -1,
      324, 302, 330, -1,
      330, 302, 259, -1,
      330, 259, 260, -1,
      387, 388, 295, -1,
      295, 388, 389, -1,
      295, 389, 296, -1,
      296, 389, 123, -1,
      62, 82, 308, -1,
      308, 82, 378, -1,
      308, 378, 309, -1,
      309, 378, 385, -1,
      309, 385, 313, -1,
      313, 385, 384, -1,
      313, 384, 322, -1,
      322, 384, 383, -1,
      322, 383, 320, -1,
      320, 383, 382, -1,
      320, 382, 306, -1,
      306, 382, 381, -1,
      306, 381, 307, -1,
      307, 381, 380, -1,
      307, 380, 332, -1,
      332, 380, 337, -1,
      332, 337, 386, -1,
      386, 337, 336, -1,
      386, 336, 297, -1,
      297, 336, 341, -1,
      297, 341, 295, -1,
      295, 341, 345, -1,
      295, 345, 387, -1,
      390, 391, 392, -1,
      393, 394, 280, -1,
      395, 396, 397, -1,
      398, 286, 285, -1,
      286, 398, 287, -1,
      399, 400, 401, -1,
      402, 403, 404, -1,
      405, 406, 407, -1,
      408, 409, 410, -1,
      411, 412, 413, -1,
      414, 415, 416, -1,
      12, 1, 417, -1,
      417, 1, 0, -1,
      417, 0, 414, -1,
      12, 417, 13, -1,
      13, 417, 418, -1,
      13, 418, 14, -1,
      11, 10, 413, -1,
      413, 10, 8, -1,
      413, 8, 418, -1,
      418, 8, 7, -1,
      418, 7, 14, -1,
      11, 413, 5, -1,
      5, 413, 412, -1,
      5, 412, 3, -1,
      400, 419, 401, -1,
      401, 419, 420, -1,
      401, 420, 421, -1,
      421, 420, 416, -1,
      421, 416, 422, -1,
      422, 416, 415, -1,
      422, 415, 423, -1,
      400, 424, 419, -1,
      419, 424, 425, -1,
      419, 425, 426, -1,
      414, 416, 417, -1,
      417, 416, 420, -1,
      417, 420, 418, -1,
      418, 420, 419, -1,
      418, 419, 413, -1,
      413, 419, 426, -1,
      413, 426, 411, -1,
      409, 408, 427, -1,
      427, 408, 428, -1,
      427, 428, 429, -1,
      429, 428, 430, -1,
      429, 430, 423, -1,
      391, 402, 392, -1,
      392, 402, 404, -1,
      392, 404, 431, -1,
      431, 404, 432, -1,
      403, 433, 404, -1,
      404, 433, 405, -1,
      404, 405, 432, -1,
      432, 405, 407, -1,
      407, 430, 432, -1,
      432, 430, 428, -1,
      432, 428, 431, -1,
      431, 428, 408, -1,
      431, 408, 434, -1,
      434, 408, 410, -1,
      434, 410, 435, -1,
      433, 436, 405, -1,
      405, 436, 437, -1,
      405, 437, 406, -1,
      406, 437, 438, -1,
      406, 438, 439, -1,
      423, 430, 422, -1,
      422, 430, 407, -1,
      422, 407, 421, -1,
      421, 407, 406, -1,
      421, 406, 401, -1,
      401, 406, 439, -1,
      401, 439, 399, -1,
      440, 441, 442, -1,
      442, 441, 443, -1,
      443, 444, 442, -1,
      442, 444, 445, -1,
      442, 445, 446, -1,
      447, 448, 441, -1,
      441, 448, 449, -1,
      441, 449, 443, -1,
      443, 449, 450, -1,
      443, 450, 444, -1,
      451, 452, 453, -1,
      453, 452, 454, -1,
      454, 455, 453, -1,
      453, 455, 456, -1,
      453, 456, 447, -1,
      447, 456, 457, -1,
      447, 457, 448, -1,
      458, 459, 289, -1,
      289, 288, 458, -1,
      458, 288, 290, -1,
      458, 290, 291, -1,
      25, 24, 460, -1,
      460, 24, 23, -1,
      280, 394, 275, -1,
      275, 394, 460, -1,
      275, 460, 274, -1,
      274, 460, 23, -1,
      274, 23, 29, -1,
      280, 279, 393, -1,
      393, 279, 278, -1,
      393, 278, 461, -1,
      461, 278, 277, -1,
      461, 277, 462, -1,
      463, 464, 462, -1,
      284, 465, 283, -1,
      283, 465, 466, -1,
      283, 466, 282, -1,
      282, 466, 467, -1,
      282, 467, 281, -1,
      281, 467, 276, -1,
      462, 464, 461, -1,
      461, 464, 468, -1,
      461, 468, 393, -1,
      393, 468, 469, -1,
      393, 469, 394, -1,
      394, 469, 470, -1,
      394, 470, 460, -1,
      460, 470, 471, -1,
      460, 471, 25, -1,
      17, 19, 471, -1,
      471, 19, 26, -1,
      471, 26, 25, -1,
      22, 21, 472, -1,
      472, 21, 20, -1,
      472, 20, 15, -1,
      15, 17, 472, -1,
      472, 17, 471, -1,
      472, 471, 473, -1,
      473, 471, 470, -1,
      473, 470, 474, -1,
      474, 470, 469, -1,
      474, 469, 475, -1,
      475, 469, 468, -1,
      475, 468, 476, -1,
      476, 468, 464, -1,
      476, 464, 477, -1,
      477, 464, 463, -1,
      477, 463, 478, -1,
      478, 463, 479, -1,
      478, 479, 480, -1,
      480, 479, 398, -1,
      480, 398, 459, -1,
      459, 398, 285, -1,
      459, 285, 289, -1,
      277, 276, 462, -1,
      462, 276, 467, -1,
      462, 467, 463, -1,
      463, 467, 466, -1,
      463, 466, 479, -1,
      479, 466, 465, -1,
      479, 465, 398, -1,
      398, 465, 284, -1,
      398, 284, 287, -1,
      451, 120, 481, -1,
      396, 120, 451, -1,
      481, 482, 451, -1,
      451, 482, 483, -1,
      451, 483, 452, -1,
      396, 451, 397, -1,
      397, 451, 453, -1,
      397, 453, 484, -1,
      484, 453, 447, -1,
      484, 447, 435, -1,
      435, 447, 441, -1,
      435, 441, 434, -1,
      434, 441, 440, -1,
      434, 440, 431, -1,
      431, 440, 442, -1,
      431, 442, 392, -1,
      392, 442, 446, -1,
      392, 446, 390, -1,
      294, 293, 395, -1,
      395, 293, 292, -1,
      395, 292, 396, -1,
      396, 292, 120, -1,
      0, 22, 414, -1,
      414, 22, 472, -1,
      414, 472, 415, -1,
      415, 472, 473, -1,
      415, 473, 423, -1,
      423, 473, 474, -1,
      423, 474, 429, -1,
      429, 474, 475, -1,
      429, 475, 427, -1,
      427, 475, 476, -1,
      427, 476, 409, -1,
      409, 476, 477, -1,
      409, 477, 410, -1,
      410, 477, 478, -1,
      410, 478, 435, -1,
      435, 478, 480, -1,
      435, 480, 484, -1,
      484, 480, 459, -1,
      484, 459, 397, -1,
      397, 459, 458, -1,
      397, 458, 395, -1,
      395, 458, 291, -1,
      395, 291, 294, -1,
      485, 122, 123, -1,
      342, 486, 487, -1,
      345, 344, 488, -1,
      123, 389, 485, -1,
      485, 389, 388, -1,
      485, 388, 488, -1,
      488, 388, 387, -1,
      488, 387, 345, -1,
      487, 489, 342, -1,
      342, 489, 488, -1,
      342, 488, 343, -1,
      343, 488, 344, -1,
      338, 299, 490, -1,
      490, 299, 491, -1,
      486, 342, 492, -1,
      492, 342, 340, -1,
      492, 340, 490, -1,
      490, 340, 339, -1,
      490, 339, 338, -1,
      365, 493, 494, -1,
      491, 299, 495, -1,
      495, 299, 298, -1,
      495, 298, 496, -1,
      496, 298, 373, -1,
      496, 373, 497, -1,
      497, 373, 372, -1,
      497, 372, 370, -1,
      494, 498, 365, -1,
      365, 498, 497, -1,
      365, 497, 369, -1,
      369, 497, 370, -1,
      499, 363, 362, -1,
      362, 358, 499, -1,
      499, 358, 360, -1,
      499, 360, 361, -1,
      500, 501, 365, -1,
      365, 501, 502, -1,
      365, 502, 493, -1,
      363, 499, 365, -1,
      365, 499, 503, -1,
      365, 503, 500, -1,
      361, 356, 499, -1,
      499, 356, 355, -1,
      499, 355, 504, -1,
      504, 355, 348, -1,
      504, 348, 505, -1,
      350, 506, 348, -1,
      348, 506, 507, -1,
      348, 507, 505, -1,
      350, 352, 506, -1,
      506, 352, 354, -1,
      506, 354, 508, -1,
      508, 354, 353, -1,
      508, 353, 509, -1,
      509, 353, 90, -1,
      90, 353, 346, -1,
      90, 346, 89, -1,
      510, 119, 3, -1,
      425, 424, 511, -1,
      511, 424, 400, -1,
      511, 400, 512, -1,
      3, 412, 510, -1,
      510, 412, 411, -1,
      510, 411, 511, -1,
      511, 411, 426, -1,
      511, 426, 425, -1,
      437, 436, 513, -1,
      437, 513, 438, -1,
      512, 400, 514, -1,
      514, 400, 399, -1,
      514, 399, 513, -1,
      513, 399, 439, -1,
      513, 439, 438, -1,
      436, 433, 513, -1,
      513, 433, 403, -1,
      513, 403, 515, -1,
      391, 516, 402, -1,
      402, 516, 517, -1,
      402, 517, 403, -1,
      403, 517, 518, -1,
      403, 518, 515, -1,
      391, 390, 516, -1,
      516, 390, 446, -1,
      516, 446, 519, -1,
      519, 446, 445, -1,
      519, 445, 520, -1,
      520, 445, 444, -1,
      450, 521, 444, -1,
      444, 521, 522, -1,
      444, 522, 520, -1,
      450, 449, 521, -1,
      521, 449, 448, -1,
      521, 448, 523, -1,
      523, 448, 457, -1,
      523, 457, 524, -1,
      455, 454, 525, -1,
      524, 457, 525, -1,
      525, 457, 456, -1,
      525, 456, 455, -1,
      454, 452, 525, -1,
      525, 452, 483, -1,
      525, 483, 526, -1,
      526, 483, 527, -1,
      120, 122, 481, -1,
      481, 122, 528, -1,
      481, 528, 482, -1,
      482, 528, 529, -1,
      482, 529, 483, -1,
      483, 529, 530, -1,
      483, 530, 527, -1,
      531, 532, 512, -1,
      533, 534, 535, -1,
      536, 521, 523, -1,
      521, 536, 522, -1,
      534, 122, 537, -1,
      538, 539, 540, -1,
      541, 542, 543, -1,
      544, 545, 546, -1,
      93, 92, 547, -1,
      547, 92, 544, -1,
      104, 103, 548, -1,
      548, 103, 101, -1,
      548, 101, 547, -1,
      547, 101, 100, -1,
      547, 100, 93, -1,
      545, 549, 550, -1,
      104, 548, 97, -1,
      97, 548, 551, -1,
      97, 551, 98, -1,
      509, 90, 95, -1,
      544, 546, 547, -1,
      547, 546, 552, -1,
      547, 552, 548, -1,
      548, 552, 553, -1,
      548, 553, 551, -1,
      545, 550, 546, -1,
      546, 550, 554, -1,
      546, 554, 552, -1,
      552, 554, 555, -1,
      552, 555, 553, -1,
      553, 555, 504, -1,
      553, 504, 505, -1,
      95, 99, 509, -1,
      509, 99, 98, -1,
      509, 98, 508, -1,
      508, 98, 551, -1,
      508, 551, 506, -1,
      506, 551, 553, -1,
      506, 553, 507, -1,
      507, 553, 505, -1,
      542, 541, 556, -1,
      556, 541, 557, -1,
      556, 557, 558, -1,
      558, 557, 559, -1,
      558, 559, 549, -1,
      560, 561, 562, -1,
      562, 561, 563, -1,
      562, 563, 564, -1,
      564, 563, 565, -1,
      560, 566, 561, -1,
      561, 566, 498, -1,
      561, 498, 494, -1,
      494, 493, 561, -1,
      561, 493, 502, -1,
      561, 502, 563, -1,
      563, 502, 501, -1,
      563, 501, 565, -1,
      564, 559, 562, -1,
      562, 559, 557, -1,
      562, 557, 560, -1,
      560, 557, 541, -1,
      560, 541, 567, -1,
      567, 541, 543, -1,
      567, 543, 568, -1,
      501, 500, 565, -1,
      565, 500, 503, -1,
      565, 503, 499, -1,
      549, 559, 550, -1,
      550, 559, 564, -1,
      550, 564, 554, -1,
      554, 564, 565, -1,
      554, 565, 555, -1,
      555, 565, 499, -1,
      555, 499, 504, -1,
      497, 538, 496, -1,
      496, 538, 569, -1,
      490, 491, 569, -1,
      569, 491, 495, -1,
      569, 495, 496, -1,
      538, 540, 569, -1,
      569, 540, 570, -1,
      569, 570, 490, -1,
      571, 537, 489, -1,
      489, 487, 571, -1,
      571, 487, 486, -1,
      571, 486, 570, -1,
      570, 486, 492, -1,
      570, 492, 490, -1,
      572, 573, 524, -1,
      524, 525, 572, -1,
      572, 525, 526, -1,
      572, 526, 527, -1,
      115, 114, 574, -1,
      574, 114, 113, -1,
      512, 532, 511, -1,
      511, 532, 574, -1,
      511, 574, 510, -1,
      510, 574, 113, -1,
      510, 113, 119, -1,
      512, 514, 531, -1,
      531, 514, 513, -1,
      531, 513, 575, -1,
      575, 513, 515, -1,
      575, 515, 576, -1,
      577, 578, 576, -1,
      520, 579, 519, -1,
      519, 579, 580, -1,
      519, 580, 516, -1,
      516, 580, 581, -1,
      516, 581, 517, -1,
      517, 581, 518, -1,
      576, 578, 575, -1,
      575, 578, 582, -1,
      575, 582, 531, -1,
      531, 582, 583, -1,
      531, 583, 532, -1,
      532, 583, 584, -1,
      532, 584, 574, -1,
      574, 584, 585, -1,
      574, 585, 115, -1,
      107, 109, 585, -1,
      585, 109, 116, -1,
      585, 116, 115, -1,
      112, 111, 586, -1,
      586, 111, 110, -1,
      586, 110, 105, -1,
      105, 107, 586, -1,
      586, 107, 585, -1,
      586, 585, 587, -1,
      587, 585, 584, -1,
      587, 584, 588, -1,
      588, 584, 583, -1,
      588, 583, 589, -1,
      589, 583, 582, -1,
      589, 582, 590, -1,
      590, 582, 578, -1,
      590, 578, 591, -1,
      591, 578, 577, -1,
      591, 577, 592, -1,
      592, 577, 593, -1,
      592, 593, 594, -1,
      594, 593, 536, -1,
      594, 536, 573, -1,
      573, 536, 523, -1,
      573, 523, 524, -1,
      515, 518, 576, -1,
      576, 518, 581, -1,
      576, 581, 577, -1,
      577, 581, 580, -1,
      577, 580, 593, -1,
      593, 580, 579, -1,
      593, 579, 536, -1,
      536, 579, 520, -1,
      536, 520, 522, -1,
      122, 485, 537, -1,
      537, 485, 488, -1,
      537, 488, 489, -1,
      534, 537, 535, -1,
      535, 537, 571, -1,
      535, 571, 595, -1,
      595, 571, 570, -1,
      595, 570, 568, -1,
      568, 570, 540, -1,
      568, 540, 567, -1,
      567, 540, 539, -1,
      567, 539, 560, -1,
      560, 539, 538, -1,
      560, 538, 566, -1,
      566, 538, 497, -1,
      566, 497, 498, -1,
      530, 529, 533, -1,
      533, 529, 528, -1,
      533, 528, 534, -1,
      534, 528, 122, -1,
      92, 112, 544, -1,
      544, 112, 586, -1,
      544, 586, 545, -1,
      545, 586, 587, -1,
      545, 587, 549, -1,
      549, 587, 588, -1,
      549, 588, 558, -1,
      558, 588, 589, -1,
      558, 589, 556, -1,
      556, 589, 590, -1,
      556, 590, 542, -1,
      542, 590, 591, -1,
      542, 591, 543, -1,
      543, 591, 592, -1,
      543, 592, 568, -1,
      568, 592, 594, -1,
      568, 594, 595, -1,
      595, 594, 573, -1,
      595, 573, 535, -1,
      535, 573, 572, -1,
      535, 572, 533, -1,
      533, 572, 527, -1,
      533, 527, 530, -1,
    ]
  }
}

Shape {
  appearance Appearance {
    material Material {
      diffuseColor 1.0000 1.0000 0.0000
      specularColor 0.5020 0.5020 0.0000
      ambientIntensity 0.2
      transparency 0.0000
      shininess 0.5
    }
  }
  geometry IndexedFaceSet {
    ccw TRUE
    solid FALSE
    coord DEF co Coordinate {
      point [
        0.275591 0.157480 -0.003937,
        0.275591 0.098425 -0.003937,
        0.275591 0.157480 0.000000,
        0.275591 0.098425 0.000000,
        0.275591 -0.157480 0.000000,
        0.275591 -0.098425 0.000000,
        0.275591 -0.157480 -0.003937,
        0.275591 -0.098425 -0.003937,
        0.318898 0.157480 0.066929,
        0.236220 0.157480 0.066929,
        0.318898 -0.157480 0.066929,
        0.236220 -0.157480 0.066929,
        0.236220 0.157480 0.062992,
        0.236220 -0.157480 0.062992,
        0.314961 0.157480 0.062992,
        0.314961 -0.157480 0.062992,
        0.314961 0.157480 0.000000,
        0.314961 -0.157480 0.000000,
        0.196850 0.098425 0.000000,
        0.196850 -0.098425 0.000000,
        0.318898 0.157480 -0.003937,
        0.318898 -0.157480 -0.003937,
        0.196850 0.098425 -0.003937,
        0.196850 -0.098425 -0.003937,
        -0.275591 0.098425 -0.003937,
        -0.275591 0.157480 -0.003937,
        -0.275591 0.098425 0.000000,
        -0.275591 0.157480 0.000000,
        -0.275591 -0.098425 0.000000,
        -0.275591 -0.157480 0.000000,
        -0.275591 -0.098425 -0.003937,
        -0.275591 -0.157480 -0.003937,
        -0.236220 0.157480 0.066929,
        -0.242095 0.147900 0.066929,
        -0.242095 0.101250 0.066929,
        -0.302894 0.147900 0.066929,
        -0.318898 0.157480 0.066929,
        -0.302894 0.101250 0.066929,
        -0.318898 -0.157480 0.066929,
        -0.236220 -0.157480 0.066929,
        -0.236220 0.157480 0.062992,
        -0.236220 -0.157480 0.062992,
        -0.314961 0.157480 0.062992,
        -0.314961 -0.157480 0.062992,
        -0.314961 0.157480 0.000000,
        -0.314961 -0.157480 0.000000,
        -0.196850 0.098425 0.000000,
        -0.196850 -0.098425 0.000000,
        -0.318898 -0.157480 -0.003937,
        -0.318898 0.157480 -0.003937,
        -0.196850 0.098425 -0.003937,
        -0.196850 -0.098425 -0.003937,
      ]
    }
    coordIndex [
      0, 1, 2, -1,
      2, 1, 3, -1,
      4, 5, 6, -1,
      6, 5, 7, -1,
      8, 9, 10, -1,
      10, 9, 11, -1,
      9, 12, 11, -1,
      11, 12, 13, -1,
      12, 14, 13, -1,
      13, 14, 15, -1,
      14, 16, 15, -1,
      15, 16, 17, -1,
      5, 4, 17, -1,
      16, 2, 3, -1,
      18, 19, 3, -1,
      3, 19, 5, -1,
      3, 5, 16, -1,
      16, 5, 17, -1,
      20, 21, 7, -1,
      7, 21, 6, -1,
      0, 20, 1, -1,
      1, 20, 7, -1,
      1, 7, 22, -1,
      22, 7, 23, -1,
      20, 8, 21, -1,
      21, 8, 10, -1,
      12, 9, 14, -1,
      14, 9, 8, -1,
      14, 8, 16, -1,
      16, 8, 20, -1,
      16, 20, 2, -1,
      2, 20, 0, -1,
      4, 6, 17, -1,
      17, 6, 21, -1,
      17, 21, 15, -1,
      15, 21, 10, -1,
      15, 10, 13, -1,
      13, 10, 11, -1,
      1, 22, 3, -1,
      3, 22, 18, -1,
      22, 23, 18, -1,
      18, 23, 19, -1,
      23, 7, 19, -1,
      19, 7, 5, -1,
      24, 25, 26, -1,
      26, 25, 27, -1,
      28, 29, 30, -1,
      30, 29, 31, -1,
      32, 33, 34, -1,
      33, 32, 35, -1,
      35, 32, 36, -1,
      35, 36, 37, -1,
      37, 36, 38, -1,
      37, 38, 34, -1,
      34, 38, 39, -1,
      34, 39, 32, -1,
      40, 32, 41, -1,
      41, 32, 39, -1,
      42, 40, 43, -1,
      43, 40, 41, -1,
      44, 42, 45, -1,
      45, 42, 43, -1,
      44, 45, 28, -1,
      28, 45, 29, -1,
      27, 44, 26, -1,
      26, 44, 28, -1,
      26, 28, 46, -1,
      46, 28, 47, -1,
      30, 31, 48, -1,
      49, 25, 24, -1,
      50, 51, 24, -1,
      24, 51, 30, -1,
      24, 30, 49, -1,
      49, 30, 48, -1,
      36, 49, 38, -1,
      38, 49, 48, -1,
      27, 25, 44, -1,
      44, 25, 49, -1,
      44, 49, 42, -1,
      42, 49, 36, -1,
      42, 36, 40, -1,
      40, 36, 32, -1,
      41, 39, 43, -1,
      43, 39, 38, -1,
      43, 38, 45, -1,
      45, 38, 48, -1,
      45, 48, 29, -1,
      29, 48, 31, -1,
      50, 24, 46, -1,
      46, 24, 26, -1,
      51, 50, 47, -1,
      47, 50, 46, -1,
      30, 51, 28, -1,
      28, 51, 47, -1,
    ]
  }
}

Shape {
  appearance Appearance {
    material Material {
      diffuseColor 0.7529 1.0000 0.7529
      specularColor 0.3765 0.5020 0.3765
      ambientIntensity 0.2
      transparency 0.0000
      shininess 0.5
    }
  }
  geometry IndexedFaceSet {
    ccw TRUE
    solid FALSE
    coord DEF co Coordinate {
      point [
        -0.242095 0.147900 0.066929,
        -0.242095 0.101250 0.066929,
        -0.302894 0.147900 0.066929,
        -0.302894 0.101250 0.066929,
        -0.302894 0.101250 0.066535,
        -0.302894 0.147900 0.066535,
        -0.242095 0.147900 0.066535,
        -0.242095 0.101250 0.066535,
      ]
    }
    coordIndex [
      4, 5, 3, -1,
      3, 5, 2, -1,
      5, 6, 2, -1,
      2, 6, 0, -1,
      6, 7, 0, -1,
      0, 7, 1, -1,
      7, 4, 1, -1,
      1, 4, 3, -1,
      7, 6, 4, -1,
      4, 6, 5, -1,
    ]
  }
}

Shape {
  appearance Appearance {
    material Material {
      diffuseColor 1.0000 1.0000 1.0000
      specularColor 0.5020 0.5020 0.5020
      ambientIntensity 0.2
      transparency 0.0000
      shininess 0.5
    }
  }
  geometry IndexedFaceSet {
    ccw TRUE
    solid FALSE
    coord DEF co Coordinate {
      point [
        0.314961 0.157480 0.062992,
        0.314961 -0.157480 0.062992,
        0.314961 0.157480 0.000000,
        0.314961 -0.157480 0.000000,
        -0.314961 0.157480 0.062992,
        -0.314961 -0.157480 0.062992,
        -0.314961 0.157480 0.000000,
        -0.314961 -0.157480 0.000000,
        -0.014809 0.157480 0.000000,
        -0.010968 -0.012915 0.000000,
        -0.014809 -0.017477 0.000000,
        -0.010968 -0.017237 0.000000,
        0.010157 -0.017237 0.000000,
        0.017839 -0.015196 0.000000,
        0.017839 -0.010875 0.000000,
        0.010157 0.022133 0.000000,
        0.004876 0.017813 0.000000,
        0.004876 0.004849 0.000000,
        -0.010008 0.017813 0.000000,
        -0.009048 0.004849 0.000000,
        0.004876 0.000528 0.000000,
        0.004876 -0.012915 0.000000,
        -0.009048 0.000528 0.000000,
        0.070653 -0.017237 0.000000,
        0.030987 -0.017477 0.000000,
        0.050487 -0.017237 0.000000,
        0.033524 -0.017214 0.000000,
        0.037340 -0.015900 0.000000,
        -0.010008 0.022133 0.000000,
        0.045049 0.011764 0.000000,
        0.042741 0.015445 0.000000,
        0.065371 0.022133 0.000000,
        0.030936 0.017857 0.000000,
        0.033883 0.016794 0.000000,
        0.018545 -0.011266 0.000000,
        0.036607 0.014971 0.000000,
        0.038985 0.012346 0.000000,
        0.041845 0.002028 0.000000,
        0.041446 -0.002233 0.000000,
        0.040377 -0.005620 0.000000,
        0.031617 -0.012983 0.000000,
        0.027944 -0.013396 0.000000,
        0.034485 -0.011928 0.000000,
        0.036901 -0.010299 0.000000,
        0.038749 -0.008350 0.000000,
        0.022718 -0.012815 0.000000,
        0.040608 0.009306 0.000000,
        0.041657 0.005092 0.000000,
        0.040506 -0.013878 0.000000,
        0.043464 -0.010765 0.000000,
        0.050487 -0.012915 0.000000,
        0.045561 -0.007021 0.000000,
        0.065371 -0.012915 0.000000,
        0.046746 -0.002854 0.000000,
        0.047127 0.001706 0.000000,
        0.046560 0.007303 0.000000,
        0.039187 0.018863 0.000000,
        0.035447 0.021016 0.000000,
        0.031058 0.022291 0.000000,
        0.027104 0.022614 0.000000,
        0.022391 0.022289 0.000000,
        0.017839 0.021053 0.000000,
        0.017839 0.015772 0.000000,
        0.022274 0.017671 0.000000,
        0.027059 0.018293 0.000000,
        0.026014 -0.017477 0.000000,
        0.027595 -0.017698 0.000000,
        -0.014809 -0.157480 0.000000,
        0.028672 -0.017717 0.000000,
        0.070653 0.022133 0.000000,
        0.314961 -0.017477 0.000000,
        -0.314961 -0.017477 0.000000,
        0.022036 -0.016919 0.000000,
        -0.053219 -0.017237 0.000000,
        -0.048372 -0.006446 0.000000,
        -0.046115 -0.009967 0.000000,
        -0.082987 -0.017237 0.000000,
        -0.088748 -0.017237 0.000000,
        -0.073384 0.022133 0.000000,
        -0.068103 0.022133 0.000000,
        -0.042874 -0.013070 0.000000,
        -0.038763 -0.015459 0.000000,
        -0.034227 -0.016811 0.000000,
        -0.029356 -0.017237 0.000000,
        -0.018650 -0.017237 0.000000,
        -0.018650 0.022133 0.000000,
        -0.029761 0.022133 0.000000,
        -0.044381 0.017000 0.000000,
        -0.047165 0.013913 0.000000,
        -0.048995 0.010527 0.000000,
        -0.035448 0.021526 0.000000,
        -0.040055 0.019908 0.000000,
        -0.044340 0.017036 0.000000,
        -0.058981 -0.017237 0.000000,
        -0.062739 -0.006194 0.000000,
        -0.079003 -0.006194 0.000000,
        -0.050052 0.006648 0.000000,
        -0.050338 0.002944 0.000000,
        -0.049786 -0.002325 0.000000,
        -0.116940 0.035405 0.062992,
        -0.116940 -0.035405 0.062992,
        -0.040540 -0.035405 0.062992,
        -0.040540 0.035405 0.062992,
      ]
    }
    coordIndex [
      8, 9, 10, -1,
      10, 9, 11, -1,
      10, 11, 12, -1,
      13, 12, 14, -1,
      14, 12, 15, -1,
      16, 17, 18, -1,
      18, 17, 19, -1,
      20, 21, 22, -1,
      22, 21, 9, -1,
      23, 24, 25, -1,
      25, 24, 26, -1,
      25, 26, 27, -1,
      15, 28, 8, -1,
      8, 28, 18, -1,
      8, 18, 9, -1,
      9, 18, 19, -1,
      9, 19, 22, -1,
      29, 30, 31, -1,
      32, 33, 34, -1,
      34, 33, 35, -1,
      34, 35, 36, -1,
      37, 38, 34, -1,
      34, 38, 39, -1,
      40, 41, 42, -1,
      42, 41, 43, -1,
      39, 44, 34, -1,
      34, 44, 43, -1,
      34, 43, 45, -1,
      45, 43, 41, -1,
      36, 46, 34, -1,
      34, 46, 47, -1,
      34, 47, 37, -1,
      27, 48, 25, -1,
      25, 48, 49, -1,
      25, 49, 50, -1,
      50, 49, 51, -1,
      50, 51, 52, -1,
      51, 53, 52, -1,
      52, 53, 54, -1,
      52, 54, 31, -1,
      31, 54, 55, -1,
      31, 55, 29, -1,
      56, 57, 8, -1,
      8, 57, 58, -1,
      8, 58, 59, -1,
      59, 60, 8, -1,
      8, 60, 61, -1,
      8, 61, 15, -1,
      15, 61, 62, -1,
      15, 62, 14, -1,
      14, 62, 63, -1,
      14, 63, 34, -1,
      34, 63, 64, -1,
      34, 64, 32, -1,
      65, 66, 67, -1,
      67, 66, 68, -1,
      67, 68, 24, -1,
      30, 56, 31, -1,
      31, 56, 8, -1,
      31, 8, 69, -1,
      69, 8, 2, -1,
      69, 2, 23, -1,
      23, 2, 70, -1,
      23, 70, 24, -1,
      24, 70, 3, -1,
      24, 3, 67, -1,
      7, 71, 67, -1,
      67, 71, 10, -1,
      67, 10, 65, -1,
      65, 10, 12, -1,
      65, 12, 72, -1,
      72, 12, 13, -1,
      73, 74, 75, -1,
      76, 10, 77, -1,
      77, 10, 71, -1,
      77, 71, 78, -1,
      78, 71, 6, -1,
      78, 6, 79, -1,
      79, 6, 8, -1,
      75, 80, 73, -1,
      73, 80, 81, -1,
      73, 81, 82, -1,
      83, 84, 10, -1,
      10, 84, 85, -1,
      10, 85, 8, -1,
      8, 85, 86, -1,
      87, 88, 79, -1,
      79, 88, 89, -1,
      86, 90, 8, -1,
      8, 90, 91, -1,
      8, 91, 79, -1,
      79, 91, 92, -1,
      79, 92, 87, -1,
      82, 83, 73, -1,
      73, 83, 10, -1,
      73, 10, 93, -1,
      93, 10, 76, -1,
      93, 76, 94, -1,
      94, 76, 95, -1,
      89, 96, 79, -1,
      79, 96, 97, -1,
      79, 97, 73, -1,
      73, 97, 98, -1,
      73, 98, 74, -1,
      99, 4, 100, -1,
      100, 4, 5, -1,
      100, 5, 101, -1,
      101, 5, 1, -1,
      101, 1, 102, -1,
      102, 1, 0, -1,
      102, 0, 99, -1,
      99, 0, 4, -1,
      2, 0, 70, -1,
      70, 0, 1, -1,
      70, 1, 3, -1,
      6, 4, 8, -1,
      8, 4, 0, -1,
      8, 0, 2, -1,
      4, 6, 5, -1,
      5, 6, 71, -1,
      5, 71, 7, -1,
      3, 1, 67, -1,
      67, 1, 5, -1,
      67, 5, 7, -1,
    ]
  }
}

Shape {
  appearance Appearance {
    material Material {
      diffuseColor 0.5020 0.5020 0.5020
      specularColor 0.2510 0.2510 0.2510
      ambientIntensity 0.2
      transparency 0.0000
      shininess 0.5
    }
  }
  geometry IndexedFaceSet {
    ccw TRUE
    solid FALSE
    coord DEF co Coordinate {
      point [
        -0.116940 0.035405 0.062992,
        -0.116940 -0.035405 0.062992,
        -0.040540 -0.035405 0.062992,
        -0.040540 0.035405 0.062992,
        -0.040540 0.035405 0.102362,
        -0.040540 -0.035405 0.102362,
        -0.116940 0.035405 0.102362,
        -0.116940 -0.035405 0.102362,
      ]
    }
    coordIndex [
      4, 5, 3, -1,
      3, 5, 2, -1,
      6, 4, 0, -1,
      0, 4, 3, -1,
      7, 6, 1, -1,
      1, 6, 0, -1,
      5, 7, 2, -1,
      2, 7, 1, -1,
      6, 7, 4, -1,
      4, 7, 5, -1,
    ]
  }
}

Shape {
  appearance Appearance {
    material Material {
      diffuseColor 0.0000 0.0000 0.0000
      specularColor 0.0000 0.0000 0.0000
      ambientIntensity 0.2
      transparency 0.0000
      shininess 0.5
    }
  }
  geometry IndexedFaceSet {
    ccw TRUE
    solid FALSE
    coord DEF co Coordinate {
      point [
        -0.010968 -0.012915 0.000000,
        -0.010968 -0.017237 0.000000,
        0.010157 -0.017237 0.000000,
        0.017839 -0.015196 0.000000,
        0.017839 -0.010875 0.000000,
        0.010157 0.022133 0.000000,
        0.004876 0.017813 0.000000,
        0.004876 0.004849 0.000000,
        -0.010008 0.017813 0.000000,
        -0.009048 0.004849 0.000000,
        0.004876 0.000528 0.000000,
        0.004876 -0.012915 0.000000,
        -0.009048 0.000528 0.000000,
        0.070653 -0.017237 0.000000,
        0.030987 -0.017477 0.000000,
        0.050487 -0.017237 0.000000,
        0.033524 -0.017214 0.000000,
        0.037340 -0.015900 0.000000,
        -0.010008 0.022133 0.000000,
        0.045049 0.011764 0.000000,
        0.042741 0.015445 0.000000,
        0.065371 0.022133 0.000000,
        0.030936 0.017857 0.000000,
        0.033883 0.016794 0.000000,
        0.018545 -0.011266 0.000000,
        0.036607 0.014971 0.000000,
        0.038985 0.012346 0.000000,
        0.041845 0.002028 0.000000,
        0.041446 -0.002233 0.000000,
        0.040377 -0.005620 0.000000,
        0.031617 -0.012983 0.000000,
        0.027944 -0.013396 0.000000,
        0.034485 -0.011928 0.000000,
        0.036901 -0.010299 0.000000,
        0.038749 -0.008350 0.000000,
        0.022718 -0.012815 0.000000,
        0.040608 0.009306 0.000000,
        0.041657 0.005092 0.000000,
        0.040506 -0.013878 0.000000,
        0.043464 -0.010765 0.000000,
        0.050487 -0.012915 0.000000,
        0.045561 -0.007021 0.000000,
        0.065371 -0.012915 0.000000,
        0.046746 -0.002854 0.000000,
        0.047127 0.001706 0.000000,
        0.046560 0.007303 0.000000,
        0.039187 0.018863 0.000000,
        0.035447 0.021016 0.000000,
        0.031058 0.022291 0.000000,
        0.027104 0.022614 0.000000,
        0.022391 0.022289 0.000000,
        0.017839 0.021053 0.000000,
        0.017839 0.015772 0.000000,
        0.022274 0.017671 0.000000,
        0.027059 0.018293 0.000000,
        0.026014 -0.017477 0.000000,
        0.027595 -0.017698 0.000000,
        0.028672 -0.017717 0.000000,
        0.070653 0.022133 0.000000,
        0.022036 -0.016919 0.000000,
        -0.053219 -0.017237 0.000000,
        -0.048372 -0.006446 0.000000,
        -0.046115 -0.009967 0.000000,
        -0.082987 -0.017237 0.000000,
        -0.088748 -0.017237 0.000000,
        -0.073384 0.022133 0.000000,
        -0.068103 0.022133 0.000000,
        -0.042874 -0.013070 0.000000,
        -0.038763 -0.015459 0.000000,
        -0.034227 -0.016811 0.000000,
        -0.029356 -0.017237 0.000000,
        -0.018650 -0.017237 0.000000,
        -0.018650 0.022133 0.000000,
        -0.029761 0.022133 0.000000,
        -0.044381 0.017000 0.000000,
        -0.047165 0.013913 0.000000,
        -0.048995 0.010527 0.000000,
        -0.035448 0.021526 0.000000,
        -0.040055 0.019908 0.000000,
        -0.044340 0.017036 0.000000,
        -0.058981 -0.017237 0.000000,
        -0.062739 -0.006194 0.000000,
        -0.079003 -0.006194 0.000000,
        -0.050052 0.006648 0.000000,
        -0.050338 0.002944 0.000000,
        -0.049786 -0.002325 0.000000,
        -0.073384 0.022133 0.000394,
        -0.088748 -0.017237 0.000394,
        -0.082987 -0.017237 0.000394,
        -0.079003 -0.006194 0.000394,
        -0.062739 -0.006194 0.000394,
        -0.058981 -0.017237 0.000394,
        -0.053219 -0.017237 0.000394,
        -0.068103 0.022133 0.000394,
        -0.064067 -0.001872 0.000394,
        -0.077233 -0.001872 0.000394,
        -0.069941 0.014572 0.000394,
        -0.070320 0.015937 0.000394,
        -0.070571 0.017332 0.000394,
        -0.070698 0.017332 0.000394,
        -0.070956 0.015941 0.000394,
        -0.071306 0.014572 0.000394,
        -0.064067 -0.001872 0.000000,
        -0.077233 -0.001872 0.000000,
        -0.069941 0.014572 0.000000,
        -0.070320 0.015937 -0.000000,
        -0.070571 0.017332 0.000000,
        -0.070698 0.017332 0.000000,
        -0.070956 0.015941 0.000000,
        -0.071306 0.014572 0.000000,
        -0.029356 -0.017237 0.000394,
        -0.018650 -0.017237 0.000394,
        -0.018650 0.022133 0.000394,
        -0.029761 0.022133 0.000394,
        -0.050338 0.002944 0.000394,
        -0.050052 0.006648 0.000394,
        -0.048995 0.010527 0.000394,
        -0.047165 0.013913 0.000394,
        -0.044381 0.017000 0.000394,
        -0.044340 0.017036 0.000394,
        -0.040055 0.019908 0.000394,
        -0.035448 0.021526 0.000394,
        -0.034227 -0.016811 0.000394,
        -0.038763 -0.015459 0.000394,
        -0.042874 -0.013070 0.000394,
        -0.046115 -0.009967 0.000394,
        -0.048372 -0.006446 0.000394,
        -0.049786 -0.002325 0.000394,
        -0.042436 0.012292 0.000394,
        -0.040523 0.014322 0.000394,
        -0.037648 0.016180 0.000394,
        -0.034398 0.017317 0.000394,
        -0.029738 0.017813 0.000394,
        -0.023931 0.017813 0.000394,
        -0.023931 -0.012915 0.000394,
        -0.029520 -0.012915 0.000394,
        -0.033674 -0.012529 0.000394,
        -0.036987 -0.011495 0.000394,
        -0.039672 -0.009900 0.000394,
        -0.041880 -0.007719 0.000394,
        -0.043541 -0.005005 0.000394,
        -0.044696 -0.001304 0.000394,
        -0.045057 0.002831 0.000394,
        -0.044722 0.006749 0.000394,
        -0.043804 0.009863 0.000394,
        -0.029738 0.017813 0.000000,
        -0.023931 0.017813 0.000000,
        -0.034398 0.017317 0.000000,
        -0.037648 0.016180 0.000000,
        -0.040523 0.014322 0.000000,
        -0.042436 0.012292 -0.000000,
        -0.043804 0.009863 0.000000,
        -0.044722 0.006749 0.000000,
        -0.045057 0.002831 0.000000,
        -0.044696 -0.001304 0.000000,
        -0.043541 -0.005005 0.000000,
        -0.041880 -0.007719 0.000000,
        -0.039672 -0.009900 0.000000,
        -0.036987 -0.011495 -0.000000,
        -0.033674 -0.012529 0.000000,
        -0.029520 -0.012915 0.000000,
        -0.023931 -0.012915 0.000000,
        -0.010968 -0.012915 0.000394,
        -0.010968 -0.017237 0.000394,
        0.010157 -0.017237 0.000394,
        0.010157 0.022133 0.000394,
        -0.010008 0.022133 0.000394,
        -0.010008 0.017813 0.000394,
        0.004876 0.017813 0.000394,
        0.004876 0.004849 0.000394,
        -0.009048 0.004849 0.000394,
        -0.009048 0.000528 0.000394,
        0.004876 0.000528 0.000394,
        0.004876 -0.012915 0.000394,
        0.017839 -0.010875 0.000394,
        0.017839 -0.015196 0.000394,
        0.022036 -0.016919 0.000394,
        0.028672 -0.017717 0.000394,
        0.027595 -0.017698 0.000394,
        0.033524 -0.017214 0.000394,
        0.037340 -0.015900 0.000394,
        0.040506 -0.013878 0.000394,
        0.043464 -0.010765 0.000394,
        0.045561 -0.007021 0.000394,
        0.046746 -0.002854 0.000394,
        0.047127 0.001706 0.000394,
        0.027104 0.022614 0.000394,
        0.031058 0.022291 0.000394,
        0.035447 0.021016 0.000394,
        0.039187 0.018863 0.000394,
        0.042741 0.015445 0.000394,
        0.045049 0.011764 0.000394,
        0.046560 0.007303 0.000394,
        0.017839 0.021053 0.000394,
        0.022391 0.022289 0.000394,
        0.017839 0.015772 0.000394,
        0.027059 0.018293 0.000394,
        0.022274 0.017671 0.000394,
        0.041845 0.002028 0.000394,
        0.041657 0.005092 0.000394,
        0.040608 0.009306 0.000394,
        0.038985 0.012346 0.000394,
        0.036607 0.014971 0.000394,
        0.033883 0.016794 0.000394,
        0.030936 0.017857 0.000394,
        0.027944 -0.013396 0.000394,
        0.031617 -0.012983 0.000394,
        0.034485 -0.011928 0.000394,
        0.036901 -0.010299 0.000394,
        0.038749 -0.008350 0.000394,
        0.040377 -0.005620 0.000394,
        0.041446 -0.002233 0.000394,
        0.018545 -0.011266 0.000394,
        0.022718 -0.012815 0.000394,
        0.050487 -0.012915 0.000394,
        0.050487 -0.017237 0.000394,
        0.070653 -0.017237 0.000394,
        0.070653 0.022133 0.000394,
        0.065371 0.022133 0.000394,
        0.065371 -0.012915 0.000394,
      ]
    }
    coordIndex [
      86, 87, 65, -1,
      65, 87, 64, -1,
      87, 88, 64, -1,
      64, 88, 63, -1,
      88, 89, 63, -1,
      63, 89, 82, -1,
      89, 90, 82, -1,
      82, 90, 81, -1,
      90, 91, 81, -1,
      81, 91, 80, -1,
      91, 92, 80, -1,
      80, 92, 60, -1,
      92, 93, 60, -1,
      60, 93, 66, -1,
      93, 86, 66, -1,
      66, 86, 65, -1,
      94, 90, 95, -1,
      95, 90, 89, -1,
      96, 93, 94, -1,
      94, 93, 92, -1,
      94, 92, 90, -1,
      90, 92, 91, -1,
      96, 97, 93, -1,
      93, 97, 98, -1,
      93, 98, 86, -1,
      86, 98, 99, -1,
      86, 99, 100, -1,
      100, 101, 86, -1,
      86, 101, 95, -1,
      86, 95, 87, -1,
      87, 95, 89, -1,
      87, 89, 88, -1,
      94, 95, 102, -1,
      102, 95, 103, -1,
      96, 94, 104, -1,
      104, 94, 102, -1,
      96, 104, 105, -1,
      96, 105, 97, -1,
      97, 105, 106, -1,
      97, 106, 98, -1,
      99, 98, 107, -1,
      107, 98, 106, -1,
      99, 107, 108, -1,
      99, 108, 100, -1,
      100, 108, 109, -1,
      100, 109, 101, -1,
      95, 101, 103, -1,
      103, 101, 109, -1,
      110, 111, 70, -1,
      70, 111, 71, -1,
      111, 112, 71, -1,
      71, 112, 72, -1,
      112, 113, 72, -1,
      72, 113, 73, -1,
      114, 84, 83, -1,
      114, 83, 115, -1,
      115, 83, 76, -1,
      115, 76, 116, -1,
      116, 76, 75, -1,
      116, 75, 117, -1,
      117, 75, 74, -1,
      117, 74, 118, -1,
      118, 74, 79, -1,
      118, 79, 119, -1,
      119, 79, 78, -1,
      119, 78, 120, -1,
      120, 78, 77, -1,
      120, 77, 121, -1,
      121, 77, 73, -1,
      121, 73, 113, -1,
      110, 70, 69, -1,
      110, 69, 122, -1,
      122, 69, 68, -1,
      122, 68, 123, -1,
      123, 68, 67, -1,
      123, 67, 124, -1,
      124, 67, 62, -1,
      124, 62, 125, -1,
      125, 62, 61, -1,
      125, 61, 126, -1,
      126, 61, 85, -1,
      126, 85, 127, -1,
      127, 85, 84, -1,
      127, 84, 114, -1,
      116, 117, 128, -1,
      128, 117, 118, -1,
      128, 118, 129, -1,
      129, 118, 119, -1,
      129, 119, 130, -1,
      130, 119, 120, -1,
      130, 120, 131, -1,
      131, 120, 121, -1,
      131, 121, 132, -1,
      132, 121, 113, -1,
      132, 113, 133, -1,
      133, 113, 112, -1,
      133, 112, 134, -1,
      134, 112, 111, -1,
      134, 111, 135, -1,
      135, 111, 110, -1,
      135, 110, 136, -1,
      136, 110, 122, -1,
      136, 122, 137, -1,
      137, 122, 123, -1,
      137, 123, 138, -1,
      138, 123, 124, -1,
      138, 124, 139, -1,
      139, 124, 125, -1,
      139, 125, 140, -1,
      140, 125, 126, -1,
      140, 126, 141, -1,
      141, 126, 127, -1,
      141, 127, 142, -1,
      142, 127, 114, -1,
      142, 114, 143, -1,
      143, 114, 115, -1,
      143, 115, 144, -1,
      144, 115, 116, -1,
      144, 116, 128, -1,
      132, 133, 145, -1,
      145, 133, 146, -1,
      132, 145, 147, -1,
      132, 147, 131, -1,
      131, 147, 148, -1,
      131, 148, 130, -1,
      130, 148, 149, -1,
      130, 149, 129, -1,
      129, 149, 150, -1,
      129, 150, 128, -1,
      128, 150, 151, -1,
      128, 151, 144, -1,
      144, 151, 152, -1,
      144, 152, 143, -1,
      143, 152, 153, -1,
      143, 153, 142, -1,
      142, 153, 154, -1,
      142, 154, 141, -1,
      141, 154, 155, -1,
      141, 155, 140, -1,
      140, 155, 156, -1,
      140, 156, 139, -1,
      139, 156, 157, -1,
      139, 157, 138, -1,
      138, 157, 158, -1,
      138, 158, 137, -1,
      137, 158, 159, -1,
      137, 159, 136, -1,
      136, 159, 160, -1,
      136, 160, 135, -1,
      134, 135, 161, -1,
      161, 135, 160, -1,
      133, 134, 146, -1,
      146, 134, 161, -1,
      162, 163, 0, -1,
      0, 163, 1, -1,
      163, 164, 1, -1,
      1, 164, 2, -1,
      164, 165, 2, -1,
      2, 165, 5, -1,
      165, 166, 5, -1,
      5, 166, 18, -1,
      166, 167, 18, -1,
      18, 167, 8, -1,
      167, 168, 8, -1,
      8, 168, 6, -1,
      168, 169, 6, -1,
      6, 169, 7, -1,
      169, 170, 7, -1,
      7, 170, 9, -1,
      170, 171, 9, -1,
      9, 171, 12, -1,
      171, 172, 12, -1,
      12, 172, 10, -1,
      172, 173, 10, -1,
      10, 173, 11, -1,
      173, 162, 11, -1,
      11, 162, 0, -1,
      164, 163, 162, -1,
      162, 173, 164, -1,
      164, 173, 172, -1,
      164, 172, 165, -1,
      167, 166, 168, -1,
      168, 166, 165, -1,
      168, 165, 169, -1,
      169, 165, 172, -1,
      169, 172, 170, -1,
      170, 172, 171, -1,
      174, 175, 4, -1,
      4, 175, 3, -1,
      3, 175, 176, -1,
      177, 57, 56, -1,
      177, 56, 178, -1,
      178, 56, 55, -1,
      178, 55, 176, -1,
      176, 55, 59, -1,
      176, 59, 3, -1,
      57, 177, 14, -1,
      14, 177, 179, -1,
      14, 179, 16, -1,
      16, 179, 180, -1,
      16, 180, 17, -1,
      17, 180, 181, -1,
      17, 181, 38, -1,
      38, 181, 182, -1,
      38, 182, 39, -1,
      39, 182, 183, -1,
      39, 183, 41, -1,
      41, 183, 184, -1,
      41, 184, 43, -1,
      43, 184, 185, -1,
      43, 185, 44, -1,
      186, 49, 48, -1,
      186, 48, 187, -1,
      187, 48, 47, -1,
      187, 47, 188, -1,
      188, 47, 46, -1,
      188, 46, 189, -1,
      189, 46, 20, -1,
      189, 20, 190, -1,
      190, 20, 19, -1,
      190, 19, 191, -1,
      191, 19, 45, -1,
      191, 45, 192, -1,
      192, 45, 44, -1,
      192, 44, 185, -1,
      193, 51, 50, -1,
      193, 50, 194, -1,
      194, 50, 49, -1,
      194, 49, 186, -1,
      193, 195, 51, -1,
      51, 195, 52, -1,
      196, 54, 53, -1,
      196, 53, 197, -1,
      197, 53, 52, -1,
      197, 52, 195, -1,
      198, 27, 37, -1,
      198, 37, 199, -1,
      199, 37, 36, -1,
      199, 36, 200, -1,
      200, 36, 26, -1,
      200, 26, 201, -1,
      201, 26, 25, -1,
      201, 25, 202, -1,
      202, 25, 23, -1,
      202, 23, 203, -1,
      203, 23, 22, -1,
      203, 22, 204, -1,
      204, 22, 54, -1,
      204, 54, 196, -1,
      205, 31, 30, -1,
      205, 30, 206, -1,
      206, 30, 32, -1,
      206, 32, 207, -1,
      207, 32, 33, -1,
      207, 33, 208, -1,
      208, 33, 34, -1,
      208, 34, 209, -1,
      209, 34, 29, -1,
      209, 29, 210, -1,
      210, 29, 28, -1,
      210, 28, 211, -1,
      211, 28, 27, -1,
      211, 27, 198, -1,
      174, 4, 24, -1,
      174, 24, 212, -1,
      212, 24, 35, -1,
      212, 35, 213, -1,
      213, 35, 31, -1,
      213, 31, 205, -1,
      206, 177, 205, -1,
      205, 177, 178, -1,
      205, 178, 213, -1,
      213, 178, 176, -1,
      213, 176, 212, -1,
      212, 176, 175, -1,
      212, 175, 174, -1,
      195, 193, 197, -1,
      197, 193, 194, -1,
      197, 194, 196, -1,
      196, 194, 186, -1,
      196, 186, 204, -1,
      204, 186, 187, -1,
      204, 187, 203, -1,
      203, 187, 188, -1,
      203, 188, 202, -1,
      202, 188, 189, -1,
      202, 189, 201, -1,
      201, 189, 190, -1,
      201, 190, 200, -1,
      200, 190, 191, -1,
      200, 191, 199, -1,
      199, 191, 192, -1,
      199, 192, 198, -1,
      198, 192, 185, -1,
      198, 185, 211, -1,
      211, 185, 184, -1,
      211, 184, 210, -1,
      210, 184, 183, -1,
      210, 183, 209, -1,
      209, 183, 182, -1,
      209, 182, 208, -1,
      208, 182, 181, -1,
      208, 181, 207, -1,
      207, 181, 180, -1,
      207, 180, 206, -1,
      206, 180, 179, -1,
      206, 179, 177, -1,
      214, 215, 40, -1,
      40, 215, 15, -1,
      215, 216, 15, -1,
      15, 216, 13, -1,
      216, 217, 13, -1,
      13, 217, 58, -1,
      217, 218, 58, -1,
      58, 218, 21, -1,
      218, 219, 21, -1,
      21, 219, 42, -1,
      219, 214, 42, -1,
      42, 214, 40, -1,
      218, 217, 219, -1,
      219, 217, 216, -1,
      219, 216, 214, -1,
      214, 216, 215, -1,
    ]
  }
}

Shape {
  appearance Appearance {
    material Material {
      diffuseColor 1.0000 1.0000 1.0000
      specularColor 0.5020 0.5020 0.5020
      ambientIntensity 0.2
      transparency 0.0000
      shininess 0.5
    }
  }
  geometry IndexedFaceSet {
    ccw TRUE
    solid FALSE
    coord DEF co Coordinate {
      point [
        -0.064067 -0.001872 0.000000,
        -0.077233 -0.001872 0.000000,
        -0.069941 0.014572 0.000000,
        -0.070320 0.015937 -0.000000,
        -0.070571 0.017332 0.000000,
        -0.070698 0.017332 0.000000,
        -0.070956 0.015941 0.000000,
        -0.071306 0.014572 0.000000,
        -0.029738 0.017813 0.000000,
        -0.023931 0.017813 0.000000,
        -0.034398 0.017317 0.000000,
        -0.037648 0.016180 0.000000,
        -0.040523 0.014322 0.000000,
        -0.042436 0.012292 -0.000000,
        -0.043804 0.009863 0.000000,
        -0.044722 0.006749 0.000000,
        -0.045057 0.002831 0.000000,
        -0.044696 -0.001304 0.000000,
        -0.043541 -0.005005 0.000000,
        -0.041880 -0.007719 0.000000,
        -0.039672 -0.009900 0.000000,
        -0.036987 -0.011495 -0.000000,
        -0.033674 -0.012529 0.000000,
        -0.029520 -0.012915 0.000000,
        -0.023931 -0.012915 0.000000,
      ]
    }
    coordIndex [
      0, 1, 2, -1,
      2, 1, 7, -1,
      2, 7, 3, -1,
      3, 7, 6, -1,
      3, 6, 4, -1,
      4, 6, 5, -1,
      9, 24, 8, -1,
      8, 24, 23, -1,
      8, 23, 22, -1,
      16, 15, 8, -1,
      8, 15, 14, -1,
      8, 14, 10, -1,
      22, 21, 8, -1,
      8, 21, 20, -1,
      8, 20, 19, -1,
      19, 18, 8, -1,
      8, 18, 17, -1,
      8, 17, 16, -1,
      13, 12, 14, -1,
      14, 12, 11, -1,
      14, 11, 10, -1,
    ]
  }
}
