#VRML V2.0 utf8

Shape {
  appearance Appearance {
    material Material {
      diffuseColor 0.2078 0.2078 0.2078
      specularColor 0.0157 0.0157 0.0157
      ambientIntensity 0.2
      transparency 0.0000
      shininess 0.5
    }
  }
  geometry IndexedFaceSet {
    ccw TRUE
    solid FALSE
    coord DEF co Coordinate {
      point [
        -0.393701 -0.393701 0.000000,
        -0.393701 -0.374016 0.000000,
        -0.278543 -0.374016 0.000000,
        -0.151575 -0.282480 0.000000,
        -0.151575 -0.354331 0.000000,
        -0.196850 -0.374016 0.000000,
        0.000000 -0.374016 0.000000,
        -0.045276 -0.354331 0.000000,
        0.000000 -0.282480 0.000000,
        -0.196850 -0.282480 0.000000,
        -0.151575 -0.242126 0.000000,
        -0.196850 -0.098425 0.000000,
        -0.045276 -0.242126 0.000000,
        0.000000 0.192913 0.000000,
        0.000000 0.302165 0.000000,
        0.045276 0.302165 0.000000,
        0.045276 0.354331 0.000000,
        0.000000 0.393701 0.000000,
        0.151575 0.354331 0.000000,
        0.196850 0.393701 0.000000,
        0.151575 0.302165 0.000000,
        0.196850 0.302165 0.000000,
        0.151575 0.242126 0.000000,
        0.196850 0.192913 0.000000,
        0.045276 0.242126 0.000000,
        0.374016 0.302165 0.000000,
        0.374016 0.192913 0.000000,
        0.354331 0.192913 0.000000,
        0.354331 0.143701 0.000000,
        0.374016 0.098425 0.000000,
        0.242126 0.143701 0.000000,
        0.196850 0.098425 0.000000,
        0.242126 0.192913 0.000000,
        0.242126 0.250000 0.000000,
        0.354331 0.250000 0.000000,
        -0.196850 0.192913 0.000000,
        -0.196850 0.098425 0.000000,
        -0.242126 0.143701 0.000000,
        -0.278543 0.143701 0.000000,
        -0.278543 0.098425 0.000000,
        -0.354331 0.143701 0.000000,
        -0.393701 0.098425 0.000000,
        -0.354331 0.192913 0.000000,
        -0.393701 0.192913 0.000000,
        -0.354331 0.250000 0.000000,
        -0.393701 0.302165 0.000000,
        -0.278543 0.250000 0.000000,
        -0.278543 0.302165 0.000000,
        -0.242126 0.250000 0.000000,
        -0.196850 0.302165 0.000000,
        -0.242126 0.192913 0.000000,
        -0.354331 -0.053150 0.000000,
        -0.393701 -0.098425 0.000000,
        -0.354331 0.053150 0.000000,
        -0.278543 0.053150 0.000000,
        -0.242126 0.053150 0.000000,
        -0.242126 -0.053150 0.000000,
        -0.278543 -0.053150 0.000000,
        -0.278543 -0.098425 0.000000,
        -0.278543 -0.282480 0.000000,
        -0.278543 -0.250000 0.000000,
        -0.242126 -0.250000 0.000000,
        -0.242126 -0.143701 0.000000,
        -0.278543 -0.143701 0.000000,
        -0.354331 -0.143701 0.000000,
        -0.393701 -0.282480 0.000000,
        -0.354331 -0.250000 0.000000,
        -0.151575 0.354331 0.000000,
        -0.151575 0.302165 0.000000,
        -0.196850 0.393701 0.000000,
        -0.045276 0.354331 0.000000,
        -0.045276 0.302165 0.000000,
        -0.045276 0.242126 0.000000,
        -0.151575 0.242126 0.000000,
        -0.278543 0.393701 0.000000,
        -0.393701 0.393701 0.000000,
        0.374016 0.393701 0.000000,
        0.000000 0.098425 0.000000,
        0.000000 -0.098425 0.000000,
        -0.045276 -0.282480 0.000000,
        0.196850 -0.098425 0.000000,
        0.354331 -0.053150 0.000000,
        0.374016 -0.098425 0.000000,
        0.242126 -0.053150 0.000000,
        0.242126 0.053150 0.000000,
        0.354331 0.053150 0.000000,
        0.242126 -0.143701 0.000000,
        0.196850 -0.282480 0.000000,
        0.151575 -0.242126 0.000000,
        0.045276 -0.242126 0.000000,
        0.045276 -0.282480 0.000000,
        0.045276 -0.354331 0.000000,
        0.196850 -0.374016 0.000000,
        0.151575 -0.354331 0.000000,
        0.151575 -0.282480 0.000000,
        0.354331 -0.143701 0.000000,
        0.354331 -0.250000 0.000000,
        0.374016 -0.282480 0.000000,
        0.242126 -0.250000 0.000000,
        -0.314961 -0.354331 0.000000,
        -0.354331 -0.354331 0.000000,
        -0.354331 -0.314961 0.000000,
        0.374016 -0.374016 0.000000,
        -0.278543 -0.393701 0.000000,
        -0.196850 -0.393701 0.000000,
        0.000000 -0.393701 0.000000,
        0.196850 -0.393701 0.000000,
        0.374016 -0.393701 0.000000,
        0.393701 0.393701 0.000000,
        0.393701 0.302165 0.000000,
        0.393701 0.192913 0.000000,
        0.393701 0.098425 0.000000,
        0.393701 -0.098425 0.000000,
        0.393701 -0.282480 0.000000,
        0.393701 -0.374016 0.000000,
        0.393701 -0.393701 0.000000,
      ]
    }
    coordIndex [
      0, 1, 2, -1,
      3, 4, 5, -1,
      5, 4, 6, -1,
      6, 4, 7, -1,
      6, 7, 8, -1,
      3, 9, 10, -1,
      10, 9, 11, -1,
      10, 11, 12, -1,
      13, 14, 15, -1,
      15, 14, 16, -1,
      16, 14, 17, -1,
      16, 17, 18, -1,
      18, 17, 19, -1,
      18, 19, 20, -1,
      20, 19, 21, -1,
      20, 21, 22, -1,
      22, 21, 23, -1,
      22, 23, 24, -1,
      25, 26, 27, -1,
      27, 26, 28, -1,
      28, 26, 29, -1,
      28, 29, 30, -1,
      30, 29, 31, -1,
      30, 31, 32, -1,
      32, 31, 23, -1,
      32, 23, 33, -1,
      33, 23, 21, -1,
      33, 21, 34, -1,
      35, 36, 37, -1,
      37, 36, 38, -1,
      38, 36, 39, -1,
      38, 39, 40, -1,
      40, 39, 41, -1,
      40, 41, 42, -1,
      42, 41, 43, -1,
      42, 43, 44, -1,
      44, 43, 45, -1,
      44, 45, 46, -1,
      46, 45, 47, -1,
      46, 47, 48, -1,
      48, 47, 49, -1,
      48, 49, 50, -1,
      51, 52, 53, -1,
      53, 52, 41, -1,
      53, 41, 54, -1,
      54, 41, 39, -1,
      54, 39, 55, -1,
      55, 39, 36, -1,
      55, 36, 56, -1,
      56, 36, 11, -1,
      56, 11, 57, -1,
      57, 11, 58, -1,
      57, 58, 51, -1,
      51, 58, 52, -1,
      59, 60, 9, -1,
      9, 60, 61, -1,
      9, 61, 11, -1,
      11, 61, 62, -1,
      11, 62, 58, -1,
      58, 62, 63, -1,
      58, 63, 52, -1,
      52, 63, 64, -1,
      52, 64, 65, -1,
      65, 64, 66, -1,
      67, 68, 49, -1,
      49, 68, 35, -1,
      49, 35, 50, -1,
      50, 35, 37, -1,
      67, 69, 70, -1,
      70, 69, 17, -1,
      70, 17, 71, -1,
      71, 17, 14, -1,
      71, 14, 72, -1,
      72, 14, 13, -1,
      72, 13, 73, -1,
      67, 49, 69, -1,
      69, 49, 47, -1,
      69, 47, 74, -1,
      74, 47, 45, -1,
      74, 45, 75, -1,
      19, 76, 21, -1,
      21, 76, 25, -1,
      21, 25, 34, -1,
      34, 25, 27, -1,
      68, 73, 35, -1,
      35, 73, 13, -1,
      35, 13, 36, -1,
      36, 13, 77, -1,
      36, 77, 11, -1,
      11, 77, 78, -1,
      11, 78, 12, -1,
      12, 78, 8, -1,
      12, 8, 79, -1,
      79, 8, 7, -1,
      15, 24, 13, -1,
      13, 24, 23, -1,
      13, 23, 77, -1,
      77, 23, 31, -1,
      77, 31, 78, -1,
      78, 31, 80, -1,
      81, 82, 83, -1,
      83, 82, 80, -1,
      83, 80, 84, -1,
      84, 80, 31, -1,
      84, 31, 85, -1,
      85, 31, 29, -1,
      85, 29, 81, -1,
      81, 29, 82, -1,
      86, 87, 80, -1,
      80, 87, 88, -1,
      80, 88, 78, -1,
      78, 88, 89, -1,
      78, 89, 8, -1,
      8, 89, 90, -1,
      8, 90, 6, -1,
      6, 90, 91, -1,
      6, 91, 92, -1,
      92, 91, 93, -1,
      92, 93, 87, -1,
      87, 93, 94, -1,
      87, 94, 88, -1,
      86, 80, 95, -1,
      95, 80, 82, -1,
      95, 82, 96, -1,
      96, 82, 97, -1,
      96, 97, 98, -1,
      99, 2, 100, -1,
      100, 2, 1, -1,
      100, 1, 101, -1,
      101, 1, 65, -1,
      101, 65, 59, -1,
      59, 65, 66, -1,
      59, 66, 60, -1,
      3, 5, 9, -1,
      9, 5, 2, -1,
      9, 2, 59, -1,
      59, 2, 99, -1,
      59, 99, 101, -1,
      86, 98, 87, -1,
      87, 98, 97, -1,
      87, 97, 92, -1,
      92, 97, 102, -1,
      0, 2, 103, -1,
      103, 2, 5, -1,
      103, 5, 104, -1,
      104, 5, 6, -1,
      104, 6, 105, -1,
      105, 6, 92, -1,
      105, 92, 106, -1,
      106, 92, 102, -1,
      106, 102, 107, -1,
      76, 108, 25, -1,
      25, 108, 109, -1,
      25, 109, 26, -1,
      26, 109, 110, -1,
      26, 110, 29, -1,
      29, 110, 111, -1,
      29, 111, 82, -1,
      82, 111, 112, -1,
      82, 112, 97, -1,
      97, 112, 113, -1,
      97, 113, 102, -1,
      102, 113, 114, -1,
      102, 114, 107, -1,
      107, 114, 115, -1,
    ]
  }
}

Shape {
  appearance Appearance {
    material Material {
      diffuseColor 0.6667 0.6667 0.6667
      specularColor 0.4667 0.4667 0.4667
      ambientIntensity 0.2
      transparency 0.0000
      shininess 0.5
    }
  }
  geometry IndexedFaceSet {
    ccw TRUE
    solid FALSE
    coord DEF co Coordinate {
      point [
        0.242126 -0.143701 0.000000,
        0.354331 -0.143701 0.000000,
        0.354331 -0.250000 0.000000,
        0.242126 -0.250000 0.000000,
        0.354331 -0.143701 -0.007874,
        0.354331 -0.250000 -0.007874,
        0.242126 -0.143701 -0.007874,
        0.242126 -0.250000 -0.007874,
        0.344835 0.372674 0.078740,
        0.354331 0.368741 0.078740,
        0.393701 0.393701 0.078740,
        0.362485 0.362485 0.078740,
        0.368741 0.354331 0.078740,
        -0.372674 0.344835 0.078740,
        -0.368741 0.354331 0.078740,
        -0.393701 0.393701 0.078740,
        -0.362485 0.362485 0.078740,
        -0.354331 0.368741 0.078740,
        0.372674 0.344835 0.078740,
        0.374016 0.334646 0.078740,
        0.393701 -0.393701 0.078740,
        0.374016 -0.334646 0.078740,
        0.372674 -0.344835 0.078740,
        0.368741 -0.354331 0.078740,
        0.362485 -0.362485 0.078740,
        0.354331 -0.368741 0.078740,
        -0.344835 0.372674 0.078740,
        -0.334646 0.374016 0.078740,
        0.334646 0.374016 0.078740,
        -0.344835 -0.372674 0.078740,
        -0.354331 -0.368741 0.078740,
        -0.393701 -0.393701 0.078740,
        -0.362485 -0.362485 0.078740,
        -0.368741 -0.354331 0.078740,
        0.344835 -0.372674 0.078740,
        0.334646 -0.374016 0.078740,
        -0.334646 -0.374016 0.078740,
        -0.372674 -0.344835 0.078740,
        -0.374016 -0.334646 0.078740,
        -0.374016 0.334646 0.078740,
      ]
    }
    coordIndex [
      4, 5, 6, -1,
      6, 5, 7, -1,
      7, 5, 3, -1,
      3, 5, 2, -1,
      5, 4, 2, -1,
      2, 4, 1, -1,
      4, 6, 1, -1,
      1, 6, 0, -1,
      6, 7, 0, -1,
      0, 7, 3, -1,
      8, 9, 10, -1,
      10, 9, 11, -1,
      10, 11, 12, -1,
      13, 14, 15, -1,
      15, 14, 16, -1,
      15, 16, 17, -1,
      12, 18, 10, -1,
      10, 18, 19, -1,
      10, 19, 20, -1,
      20, 19, 21, -1,
      20, 21, 22, -1,
      22, 23, 20, -1,
      20, 23, 24, -1,
      20, 24, 25, -1,
      17, 26, 15, -1,
      15, 26, 27, -1,
      15, 27, 10, -1,
      10, 27, 28, -1,
      10, 28, 8, -1,
      29, 30, 31, -1,
      31, 30, 32, -1,
      31, 32, 33, -1,
      25, 34, 20, -1,
      20, 34, 35, -1,
      20, 35, 31, -1,
      31, 35, 36, -1,
      31, 36, 29, -1,
      33, 37, 31, -1,
      31, 37, 38, -1,
      31, 38, 15, -1,
      15, 38, 39, -1,
      15, 39, 13, -1,
    ]
  }
}

Shape {
  appearance Appearance {
    material Material {
      diffuseColor 0.2078 0.2078 0.2078
      specularColor 0.0157 0.0157 0.0157
      ambientIntensity 0.2
      transparency 0.0000
      shininess 0.5
    }
  }
  geometry IndexedFaceSet {
    ccw TRUE
    solid FALSE
    coord DEF co Coordinate {
      point [
        -0.393701 -0.393701 0.000000,
        -0.393701 -0.374016 0.000000,
        0.000000 0.393701 0.000000,
        0.196850 0.393701 0.000000,
        -0.393701 0.098425 0.000000,
        -0.393701 0.192913 0.000000,
        -0.393701 0.302165 0.000000,
        -0.393701 -0.098425 0.000000,
        -0.393701 -0.282480 0.000000,
        -0.196850 0.393701 0.000000,
        -0.278543 0.393701 0.000000,
        -0.393701 0.393701 0.000000,
        0.374016 0.393701 0.000000,
        -0.278543 -0.393701 0.000000,
        -0.196850 -0.393701 0.000000,
        0.000000 -0.393701 0.000000,
        0.196850 -0.393701 0.000000,
        0.374016 -0.393701 0.000000,
        0.393701 0.393701 0.000000,
        0.393701 0.302165 0.000000,
        0.393701 0.192913 0.000000,
        0.393701 0.098425 0.000000,
        0.393701 -0.098425 0.000000,
        0.393701 -0.282480 0.000000,
        0.393701 -0.374016 0.000000,
        0.393701 -0.393701 0.000000,
        0.393701 0.393701 0.078740,
        -0.393701 0.393701 0.078740,
        0.393701 -0.393701 0.078740,
        -0.393701 -0.393701 0.078740,
      ]
    }
    coordIndex [
      28, 25, 24, -1,
      21, 26, 22, -1,
      22, 26, 28, -1,
      22, 28, 23, -1,
      23, 28, 24, -1,
      21, 20, 26, -1,
      26, 20, 19, -1,
      26, 19, 18, -1,
      10, 11, 27, -1,
      26, 18, 12, -1,
      12, 3, 26, -1,
      26, 3, 2, -1,
      26, 2, 27, -1,
      27, 2, 9, -1,
      27, 9, 10, -1,
      27, 11, 6, -1,
      7, 29, 4, -1,
      4, 29, 27, -1,
      4, 27, 5, -1,
      5, 27, 6, -1,
      7, 8, 29, -1,
      29, 8, 1, -1,
      29, 1, 0, -1,
      17, 25, 28, -1,
      29, 0, 13, -1,
      13, 14, 29, -1,
      29, 14, 15, -1,
      29, 15, 28, -1,
      28, 15, 16, -1,
      28, 16, 17, -1,
    ]
  }
}

Shape {
  appearance Appearance {
    material Material {
      diffuseColor 0.6667 0.6667 0.6667
      specularColor 0.4667 0.4667 0.4667
      ambientIntensity 0.2
      transparency 0.0000
      shininess 0.5
    }
  }
  geometry IndexedFaceSet {
    ccw TRUE
    solid FALSE
    coord DEF co Coordinate {
      point [
        0.344835 0.372674 0.078740,
        0.354331 0.368741 0.078740,
        0.362485 0.362485 0.078740,
        0.368741 0.354331 0.078740,
        -0.372674 0.344835 0.078740,
        -0.368741 0.354331 0.078740,
        -0.362485 0.362485 0.078740,
        -0.354331 0.368741 0.078740,
        0.372674 0.344835 0.078740,
        0.374016 0.334646 0.078740,
        0.374016 -0.334646 0.078740,
        0.372674 -0.344835 0.078740,
        0.368741 -0.354331 0.078740,
        0.362485 -0.362485 0.078740,
        0.354331 -0.368741 0.078740,
        -0.344835 0.372674 0.078740,
        -0.334646 0.374016 0.078740,
        0.334646 0.374016 0.078740,
        -0.344835 -0.372674 0.078740,
        -0.354331 -0.368741 0.078740,
        -0.362485 -0.362485 0.078740,
        -0.368741 -0.354331 0.078740,
        0.344835 -0.372674 0.078740,
        0.334646 -0.374016 0.078740,
        -0.334646 -0.374016 0.078740,
        -0.372674 -0.344835 0.078740,
        -0.374016 -0.334646 0.078740,
        -0.374016 0.334646 0.078740,
        0.354331 0.334646 0.279528,
        0.354331 -0.334646 0.279528,
        0.354331 0.334646 0.098425,
        0.354331 -0.334646 0.098425,
        -0.334646 0.354331 0.279528,
        0.334646 0.354331 0.279528,
        -0.334646 0.354331 0.098425,
        0.334646 0.354331 0.098425,
        -0.354331 0.334646 0.098425,
        -0.354331 -0.334646 0.098425,
        -0.354331 0.334646 0.279528,
        -0.354331 -0.334646 0.279528,
        0.334646 -0.354331 0.279528,
        -0.334646 -0.354331 0.279528,
        0.334646 -0.354331 0.098425,
        -0.334646 -0.354331 0.098425,
        0.185606 -0.065579 0.366142,
        0.171853 -0.096003 0.366142,
        0.267717 -0.267717 0.366142,
        0.153157 -0.123665 0.366142,
        0.130054 -0.147770 0.366142,
        -0.025004 -0.195256 0.366142,
        -0.267717 -0.267717 0.366142,
        0.008355 -0.196673 0.366142,
        0.041472 -0.192432 0.366142,
        -0.057642 -0.188222 0.366142,
        -0.088623 -0.175773 0.366142,
        -0.117054 -0.158267 0.366142,
        0.103210 -0.167624 0.366142,
        0.073397 -0.182656 0.366142,
        -0.142117 -0.136208 0.366142,
        -0.163093 -0.110231 0.366142,
        -0.179376 -0.081083 0.366142,
        0.153157 0.123665 0.366142,
        0.171853 0.096003 0.366142,
        0.267717 0.267717 0.366142,
        0.185606 0.065579 0.366142,
        -0.190498 0.049602 0.366142,
        -0.179376 0.081083 0.366142,
        -0.267717 0.267717 0.366142,
        -0.163093 0.110231 0.366142,
        -0.142117 0.136208 0.366142,
        0.194019 0.033268 0.366142,
        0.196850 0.000000 0.366142,
        0.194019 -0.033268 0.366142,
        -0.190498 -0.049602 0.366142,
        -0.196141 -0.016694 0.366142,
        -0.196141 0.016694 0.366142,
        -0.117054 0.158267 0.366142,
        -0.088623 0.175773 0.366142,
        -0.057642 0.188222 0.366142,
        0.073397 0.182656 0.366142,
        0.103210 0.167624 0.366142,
        0.130054 0.147770 0.366142,
        -0.025004 0.195256 0.366142,
        0.008355 0.196673 0.366142,
        0.041472 0.192432 0.366142,
        0.334605 0.354278 0.282562,
        -0.334605 0.354278 0.282562,
        0.332978 0.352172 0.298745,
        -0.332978 0.352172 0.298745,
        0.332963 0.352154 0.298799,
        -0.332963 0.352154 0.298799,
        0.328605 0.346513 0.315487,
        -0.328605 0.346513 0.315487,
        0.327897 0.345598 0.317016,
        -0.327897 0.345598 0.317016,
        -0.320944 0.336599 0.332037,
        0.320944 0.336599 0.332037,
        -0.319935 0.335293 0.333397,
        0.319935 0.335293 0.333397,
        -0.310433 0.322997 0.346207,
        0.310433 0.322997 0.346207,
        0.309372 0.321624 0.347101,
        -0.309372 0.321624 0.347101,
        -0.297571 0.306351 0.357048,
        0.297571 0.306351 0.357048,
        0.296721 0.305252 0.357445,
        -0.296721 0.305252 0.357445,
        -0.283058 0.287570 0.363835,
        0.283058 0.287570 0.363835,
        0.282603 0.286981 0.363904,
        -0.282603 0.286981 0.363904,
        -0.286981 0.282603 0.363904,
        -0.286981 -0.282603 0.363904,
        -0.305252 0.296721 0.357445,
        -0.305252 -0.296721 0.357445,
        -0.287570 -0.283058 0.363835,
        -0.287570 0.283058 0.363835,
        -0.321624 0.309372 0.347101,
        -0.321624 -0.309372 0.347101,
        -0.306351 -0.297571 0.357048,
        -0.306351 0.297571 0.357048,
        -0.335293 0.319935 0.333397,
        -0.335293 -0.319935 0.333397,
        -0.322997 -0.310433 0.346207,
        -0.322997 0.310433 0.346207,
        -0.336599 -0.320944 0.332037,
        -0.336599 0.320944 0.332037,
        -0.345598 -0.327897 0.317016,
        -0.345598 0.327897 0.317016,
        -0.346513 0.328605 0.315487,
        -0.346513 -0.328605 0.315487,
        -0.352154 0.332963 0.298799,
        -0.352154 -0.332963 0.298799,
        -0.354278 -0.334605 0.282562,
        -0.352172 -0.332978 0.298745,
        -0.352172 0.332978 0.298745,
        -0.354278 0.334605 0.282562,
        0.354278 -0.334605 0.282562,
        0.354278 0.334605 0.282562,
        0.352172 0.332978 0.298745,
        0.352172 -0.332978 0.298745,
        0.352154 0.332963 0.298799,
        0.352154 -0.332963 0.298799,
        0.346513 -0.328605 0.315487,
        0.346513 0.328605 0.315487,
        0.345598 -0.327897 0.317016,
        0.345598 0.327897 0.317016,
        0.336599 -0.320944 0.332037,
        0.336599 0.320944 0.332037,
        0.335293 -0.319935 0.333397,
        0.335293 0.319935 0.333397,
        0.322997 0.310433 0.346207,
        0.322997 -0.310433 0.346207,
        0.321624 -0.309372 0.347101,
        0.321624 0.309372 0.347101,
        0.306351 0.297571 0.357048,
        0.306351 -0.297571 0.357048,
        0.305252 -0.296721 0.357445,
        0.305252 0.296721 0.357445,
        0.287570 0.283058 0.363835,
        0.287570 -0.283058 0.363835,
        0.286981 -0.282603 0.363904,
        0.286981 0.282603 0.363904,
        -0.334605 -0.354278 0.282562,
        0.334605 -0.354278 0.282562,
        -0.332978 -0.352172 0.298745,
        0.332978 -0.352172 0.298745,
        -0.332963 -0.352154 0.298799,
        0.332963 -0.352154 0.298799,
        -0.328605 -0.346513 0.315487,
        0.328605 -0.346513 0.315487,
        -0.327897 -0.345598 0.317016,
        0.327897 -0.345598 0.317016,
        -0.320944 -0.336599 0.332037,
        0.320944 -0.336599 0.332037,
        -0.319935 -0.335293 0.333397,
        0.319935 -0.335293 0.333397,
        0.310433 -0.322997 0.346207,
        -0.310433 -0.322997 0.346207,
        -0.309372 -0.321624 0.347101,
        0.309372 -0.321624 0.347101,
        0.297571 -0.306351 0.357048,
        -0.297571 -0.306351 0.357048,
        -0.296721 -0.305252 0.357445,
        0.296721 -0.305252 0.357445,
        0.283058 -0.287570 0.363835,
        -0.283058 -0.287570 0.363835,
        -0.282603 -0.286981 0.363904,
        0.282603 -0.286981 0.363904,
        -0.353660 0.339741 0.279528,
        -0.344488 0.351693 0.279528,
        -0.348565 0.348565 0.279528,
        -0.348507 0.348507 0.282847,
        -0.339741 0.353660 0.279528,
        -0.344434 0.351634 0.282814,
        -0.339693 0.353602 0.282717,
        -0.337799 0.351321 0.299648,
        -0.353602 0.339693 0.282717,
        -0.351321 0.337799 0.299648,
        -0.345306 0.332801 0.316852,
        -0.332801 0.345306 0.316852,
        -0.335067 0.324273 0.333406,
        -0.324273 0.335067 0.333406,
        -0.321407 0.312858 0.347214,
        -0.312858 0.321407 0.347214,
        -0.305047 0.299137 0.357572,
        -0.299137 0.305047 0.357572,
        -0.286839 0.283823 0.363978,
        -0.286096 0.284586 0.364064,
        -0.303657 0.300685 0.357889,
        -0.319551 0.315224 0.347828,
        -0.332976 0.327470 0.334250,
        -0.343197 0.336771 0.317701,
        -0.349296 0.342312 0.300215,
        -0.351634 0.344434 0.282814,
        -0.351693 0.344488 0.279528,
        -0.285344 0.285344 0.364093,
        -0.302197 0.302197 0.357995,
        -0.317473 0.317473 0.348034,
        -0.330410 0.330410 0.334535,
        -0.340300 0.340300 0.317989,
        -0.346228 0.346228 0.300407,
        -0.283823 0.286839 0.363978,
        -0.342312 0.349296 0.300215,
        -0.336771 0.343197 0.317701,
        -0.327470 0.332976 0.334250,
        -0.315224 0.319551 0.347828,
        -0.300685 0.303657 0.357889,
        -0.284586 0.286096 0.364064,
        0.339741 0.353660 0.279528,
        0.351693 0.344488 0.279528,
        0.348565 0.348565 0.279528,
        0.348507 0.348507 0.282847,
        0.353660 0.339741 0.279528,
        0.351634 0.344434 0.282814,
        0.353602 0.339693 0.282717,
        0.351321 0.337799 0.299648,
        0.339693 0.353602 0.282717,
        0.337799 0.351321 0.299648,
        0.332801 0.345306 0.316852,
        0.345306 0.332801 0.316852,
        0.324273 0.335067 0.333406,
        0.335067 0.324273 0.333406,
        0.312858 0.321407 0.347214,
        0.321407 0.312858 0.347214,
        0.299137 0.305047 0.357572,
        0.305047 0.299137 0.357572,
        0.283823 0.286839 0.363978,
        0.284586 0.286096 0.364064,
        0.300685 0.303657 0.357889,
        0.315224 0.319551 0.347828,
        0.327470 0.332976 0.334250,
        0.336771 0.343197 0.317701,
        0.342312 0.349296 0.300215,
        0.344434 0.351634 0.282814,
        0.344488 0.351693 0.279528,
        0.285344 0.285344 0.364093,
        0.302197 0.302197 0.357995,
        0.317473 0.317473 0.348034,
        0.330410 0.330410 0.334535,
        0.340300 0.340300 0.317989,
        0.346228 0.346228 0.300407,
        0.286839 0.283823 0.363978,
        0.349296 0.342312 0.300215,
        0.343197 0.336771 0.317701,
        0.332976 0.327470 0.334250,
        0.319551 0.315224 0.347828,
        0.303657 0.300685 0.357889,
        0.286096 0.284586 0.364064,
        -0.339741 0.353660 0.098425,
        -0.344488 0.351693 0.098425,
        -0.348565 0.348565 0.098425,
        -0.351693 0.344488 0.098425,
        -0.353660 0.339741 0.098425,
        0.353660 0.339741 0.098425,
        0.351693 0.344488 0.098425,
        0.348565 0.348565 0.098425,
        0.344488 0.351693 0.098425,
        0.339741 0.353660 0.098425,
        -0.334646 0.355002 0.093330,
        0.334646 0.355002 0.093330,
        -0.334646 0.356968 0.088583,
        0.334646 0.356968 0.088583,
        -0.334646 0.360096 0.084506,
        0.334646 0.360096 0.084506,
        -0.334646 0.364173 0.081378,
        0.334646 0.364173 0.081378,
        -0.334646 0.368921 0.079411,
        0.334646 0.368921 0.079411,
        -0.368921 0.334646 0.079411,
        -0.367753 0.343517 0.079411,
        -0.364329 0.351783 0.079411,
        -0.358882 0.358882 0.079411,
        -0.351783 0.364329 0.079411,
        -0.343517 0.367753 0.079411,
        -0.364173 0.334646 0.081378,
        -0.363167 0.342288 0.081378,
        -0.360217 0.349409 0.081378,
        -0.355525 0.355525 0.081378,
        -0.349409 0.360217 0.081378,
        -0.342288 0.363167 0.081378,
        -0.360096 0.334646 0.084506,
        -0.359229 0.341233 0.084506,
        -0.356687 0.347371 0.084506,
        -0.352642 0.352642 0.084506,
        -0.347371 0.356687 0.084506,
        -0.341233 0.359229 0.084506,
        -0.356968 0.334646 0.088583,
        -0.356207 0.340423 0.088583,
        -0.353978 0.345807 0.088583,
        -0.350430 0.350430 0.088583,
        -0.345807 0.353978 0.088583,
        -0.340423 0.356207 0.088583,
        -0.355002 0.334646 0.093330,
        -0.354308 0.339914 0.093330,
        -0.352274 0.344824 0.093330,
        -0.349039 0.349039 0.093330,
        -0.344824 0.352274 0.093330,
        -0.339914 0.354308 0.093330,
        -0.339741 -0.353660 0.279528,
        -0.351693 -0.344488 0.279528,
        -0.348565 -0.348565 0.279528,
        -0.348507 -0.348507 0.282847,
        -0.353660 -0.339741 0.279528,
        -0.351634 -0.344434 0.282814,
        -0.353602 -0.339693 0.282717,
        -0.351321 -0.337799 0.299648,
        -0.339693 -0.353602 0.282717,
        -0.337799 -0.351321 0.299648,
        -0.332801 -0.345306 0.316852,
        -0.345306 -0.332801 0.316852,
        -0.324273 -0.335067 0.333406,
        -0.335067 -0.324273 0.333406,
        -0.312858 -0.321407 0.347214,
        -0.321407 -0.312858 0.347214,
        -0.299137 -0.305047 0.357572,
        -0.305047 -0.299137 0.357572,
        -0.283823 -0.286839 0.363978,
        -0.284586 -0.286096 0.364064,
        -0.300685 -0.303657 0.357889,
        -0.315224 -0.319551 0.347828,
        -0.327470 -0.332976 0.334250,
        -0.336771 -0.343197 0.317701,
        -0.342312 -0.349296 0.300215,
        -0.344434 -0.351634 0.282814,
        -0.344488 -0.351693 0.279528,
        -0.285344 -0.285344 0.364093,
        -0.302197 -0.302197 0.357995,
        -0.317473 -0.317473 0.348034,
        -0.330410 -0.330410 0.334535,
        -0.340300 -0.340300 0.317989,
        -0.346228 -0.346228 0.300407,
        -0.286839 -0.283823 0.363978,
        -0.349296 -0.342312 0.300215,
        -0.343197 -0.336771 0.317701,
        -0.332976 -0.327470 0.334250,
        -0.319551 -0.315224 0.347828,
        -0.303657 -0.300685 0.357889,
        -0.286096 -0.284586 0.364064,
        0.353660 -0.339741 0.279528,
        0.344488 -0.351693 0.279528,
        0.348565 -0.348565 0.279528,
        0.348507 -0.348507 0.282847,
        0.339741 -0.353660 0.279528,
        0.344434 -0.351634 0.282814,
        0.339693 -0.353602 0.282717,
        0.337799 -0.351321 0.299648,
        0.353602 -0.339693 0.282717,
        0.351321 -0.337799 0.299648,
        0.345306 -0.332801 0.316852,
        0.332801 -0.345306 0.316852,
        0.335067 -0.324273 0.333406,
        0.324273 -0.335067 0.333406,
        0.321407 -0.312858 0.347214,
        0.312858 -0.321407 0.347214,
        0.305047 -0.299137 0.357572,
        0.299137 -0.305047 0.357572,
        0.286839 -0.283823 0.363978,
        0.286096 -0.284586 0.364064,
        0.303657 -0.300685 0.357889,
        0.319551 -0.315224 0.347828,
        0.332976 -0.327470 0.334250,
        0.343197 -0.336771 0.317701,
        0.349296 -0.342312 0.300215,
        0.351634 -0.344434 0.282814,
        0.351693 -0.344488 0.279528,
        0.285344 -0.285344 0.364093,
        0.302197 -0.302197 0.357995,
        0.317473 -0.317473 0.348034,
        0.330410 -0.330410 0.334535,
        0.340300 -0.340300 0.317989,
        0.346228 -0.346228 0.300407,
        0.283823 -0.286839 0.363978,
        0.342312 -0.349296 0.300215,
        0.336771 -0.343197 0.317701,
        0.327470 -0.332976 0.334250,
        0.315224 -0.319551 0.347828,
        0.300685 -0.303657 0.357889,
        0.284586 -0.286096 0.364064,
        0.343517 0.367753 0.079411,
        0.351783 0.364329 0.079411,
        0.358882 0.358882 0.079411,
        0.364329 0.351783 0.079411,
        0.367753 0.343517 0.079411,
        0.368921 0.334646 0.079411,
        0.342288 0.363167 0.081378,
        0.349409 0.360217 0.081378,
        0.355525 0.355525 0.081378,
        0.360217 0.349409 0.081378,
        0.363167 0.342288 0.081378,
        0.364173 0.334646 0.081378,
        0.341233 0.359229 0.084506,
        0.347371 0.356687 0.084506,
        0.352642 0.352642 0.084506,
        0.356687 0.347371 0.084506,
        0.359229 0.341233 0.084506,
        0.360096 0.334646 0.084506,
        0.340423 0.356207 0.088583,
        0.345807 0.353978 0.088583,
        0.350430 0.350430 0.088583,
        0.353978 0.345807 0.088583,
        0.356207 0.340423 0.088583,
        0.356968 0.334646 0.088583,
        0.339914 0.354308 0.093330,
        0.344824 0.352274 0.093330,
        0.349039 0.349039 0.093330,
        0.352274 0.344824 0.093330,
        0.354308 0.339914 0.093330,
        0.355002 0.334646 0.093330,
        -0.355002 -0.334646 0.093330,
        -0.356968 -0.334646 0.088583,
        -0.360096 -0.334646 0.084506,
        -0.364173 -0.334646 0.081378,
        -0.368921 -0.334646 0.079411,
        -0.353660 -0.339741 0.098425,
        -0.351693 -0.344488 0.098425,
        -0.348565 -0.348565 0.098425,
        -0.344488 -0.351693 0.098425,
        -0.339741 -0.353660 0.098425,
        0.339741 -0.353660 0.098425,
        0.344488 -0.351693 0.098425,
        0.348565 -0.348565 0.098425,
        0.351693 -0.344488 0.098425,
        0.353660 -0.339741 0.098425,
        0.355002 -0.334646 0.093330,
        0.356968 -0.334646 0.088583,
        0.360096 -0.334646 0.084506,
        0.364173 -0.334646 0.081378,
        0.368921 -0.334646 0.079411,
        -0.334646 -0.368921 0.079411,
        -0.343517 -0.367753 0.079411,
        -0.351783 -0.364329 0.079411,
        -0.358882 -0.358882 0.079411,
        -0.364329 -0.351783 0.079411,
        -0.367753 -0.343517 0.079411,
        -0.334646 -0.364173 0.081378,
        -0.342288 -0.363167 0.081378,
        -0.349409 -0.360217 0.081378,
        -0.355525 -0.355525 0.081378,
        -0.360217 -0.349409 0.081378,
        -0.363167 -0.342288 0.081378,
        -0.334646 -0.360096 0.084506,
        -0.341233 -0.359229 0.084506,
        -0.347371 -0.356687 0.084506,
        -0.352642 -0.352642 0.084506,
        -0.356687 -0.347371 0.084506,
        -0.359229 -0.341233 0.084506,
        -0.334646 -0.356968 0.088583,
        -0.340423 -0.356207 0.088583,
        -0.345807 -0.353978 0.088583,
        -0.350430 -0.350430 0.088583,
        -0.353978 -0.345807 0.088583,
        -0.356207 -0.340423 0.088583,
        -0.334646 -0.355002 0.093330,
        -0.339914 -0.354308 0.093330,
        -0.344824 -0.352274 0.093330,
        -0.349039 -0.349039 0.093330,
        -0.352274 -0.344824 0.093330,
        -0.354308 -0.339914 0.093330,
        0.367753 -0.343517 0.079411,
        0.364329 -0.351783 0.079411,
        0.358882 -0.358882 0.079411,
        0.351783 -0.364329 0.079411,
        0.343517 -0.367753 0.079411,
        0.334646 -0.368921 0.079411,
        0.363167 -0.342288 0.081378,
        0.360217 -0.349409 0.081378,
        0.355525 -0.355525 0.081378,
        0.349409 -0.360217 0.081378,
        0.342288 -0.363167 0.081378,
        0.334646 -0.364173 0.081378,
        0.359229 -0.341233 0.084506,
        0.356687 -0.347371 0.084506,
        0.352642 -0.352642 0.084506,
        0.347371 -0.356687 0.084506,
        0.341233 -0.359229 0.084506,
        0.334646 -0.360096 0.084506,
        0.356207 -0.340423 0.088583,
        0.353978 -0.345807 0.088583,
        0.350430 -0.350430 0.088583,
        0.345807 -0.353978 0.088583,
        0.340423 -0.356207 0.088583,
        0.334646 -0.356968 0.088583,
        0.354308 -0.339914 0.093330,
        0.352274 -0.344824 0.093330,
        0.349039 -0.349039 0.093330,
        0.344824 -0.352274 0.093330,
        0.339914 -0.354308 0.093330,
        0.334646 -0.355002 0.093330,
      ]
    }
    coordIndex [
      28, 29, 30, -1,
      30, 29, 31, -1,
      32, 33, 34, -1,
      34, 33, 35, -1,
      36, 37, 38, -1,
      38, 37, 39, -1,
      40, 41, 42, -1,
      42, 41, 43, -1,
      44, 45, 46, -1,
      46, 45, 47, -1,
      46, 47, 48, -1,
      49, 50, 51, -1,
      51, 50, 46, -1,
      51, 46, 52, -1,
      49, 53, 50, -1,
      50, 53, 54, -1,
      50, 54, 55, -1,
      48, 56, 46, -1,
      46, 56, 57, -1,
      46, 57, 52, -1,
      55, 58, 50, -1,
      50, 58, 59, -1,
      50, 59, 60, -1,
      61, 62, 63, -1,
      63, 62, 64, -1,
      65, 66, 67, -1,
      67, 66, 68, -1,
      67, 68, 69, -1,
      64, 70, 63, -1,
      63, 70, 71, -1,
      63, 71, 46, -1,
      46, 71, 72, -1,
      46, 72, 44, -1,
      60, 73, 50, -1,
      50, 73, 74, -1,
      50, 74, 67, -1,
      67, 74, 75, -1,
      67, 75, 65, -1,
      69, 76, 67, -1,
      67, 76, 77, -1,
      67, 77, 78, -1,
      79, 80, 63, -1,
      63, 80, 81, -1,
      63, 81, 61, -1,
      78, 82, 67, -1,
      67, 82, 83, -1,
      67, 83, 63, -1,
      63, 83, 84, -1,
      63, 84, 79, -1,
      33, 32, 85, -1,
      85, 32, 86, -1,
      85, 86, 87, -1,
      87, 86, 88, -1,
      87, 88, 89, -1,
      89, 88, 90, -1,
      89, 90, 91, -1,
      91, 90, 92, -1,
      91, 92, 93, -1,
      92, 94, 93, -1,
      93, 94, 95, -1,
      93, 95, 96, -1,
      96, 95, 97, -1,
      96, 97, 98, -1,
      98, 97, 99, -1,
      98, 99, 100, -1,
      100, 99, 101, -1,
      99, 102, 101, -1,
      101, 102, 103, -1,
      101, 103, 104, -1,
      104, 103, 105, -1,
      103, 106, 105, -1,
      105, 106, 107, -1,
      105, 107, 108, -1,
      108, 107, 109, -1,
      107, 110, 109, -1,
      109, 110, 67, -1,
      109, 67, 63, -1,
      67, 111, 50, -1,
      50, 111, 112, -1,
      113, 114, 115, -1,
      112, 111, 115, -1,
      115, 111, 116, -1,
      115, 116, 113, -1,
      117, 118, 119, -1,
      114, 113, 119, -1,
      119, 113, 120, -1,
      119, 120, 117, -1,
      121, 122, 123, -1,
      118, 117, 123, -1,
      123, 117, 124, -1,
      123, 124, 121, -1,
      122, 121, 125, -1,
      125, 121, 126, -1,
      125, 126, 127, -1,
      126, 128, 127, -1,
      127, 128, 129, -1,
      127, 129, 130, -1,
      130, 129, 131, -1,
      130, 131, 132, -1,
      38, 39, 133, -1,
      132, 131, 134, -1,
      134, 131, 135, -1,
      134, 135, 133, -1,
      133, 135, 136, -1,
      133, 136, 38, -1,
      137, 29, 28, -1,
      28, 138, 137, -1,
      137, 138, 139, -1,
      137, 139, 140, -1,
      140, 139, 141, -1,
      140, 141, 142, -1,
      142, 141, 143, -1,
      143, 141, 144, -1,
      143, 144, 145, -1,
      145, 144, 146, -1,
      145, 146, 147, -1,
      147, 146, 148, -1,
      147, 148, 149, -1,
      148, 150, 149, -1,
      149, 150, 151, -1,
      149, 151, 152, -1,
      152, 151, 153, -1,
      151, 154, 153, -1,
      153, 154, 155, -1,
      153, 155, 156, -1,
      156, 155, 157, -1,
      155, 158, 157, -1,
      157, 158, 159, -1,
      157, 159, 160, -1,
      160, 159, 161, -1,
      159, 162, 161, -1,
      161, 162, 63, -1,
      161, 63, 46, -1,
      163, 41, 164, -1,
      164, 41, 40, -1,
      163, 164, 165, -1,
      165, 164, 166, -1,
      165, 166, 167, -1,
      167, 166, 168, -1,
      167, 168, 169, -1,
      169, 168, 170, -1,
      169, 170, 171, -1,
      171, 170, 172, -1,
      171, 172, 173, -1,
      173, 172, 174, -1,
      173, 174, 175, -1,
      174, 176, 175, -1,
      175, 176, 177, -1,
      175, 177, 178, -1,
      178, 177, 179, -1,
      177, 180, 179, -1,
      179, 180, 181, -1,
      179, 181, 182, -1,
      182, 181, 183, -1,
      181, 184, 183, -1,
      183, 184, 185, -1,
      183, 185, 186, -1,
      186, 185, 187, -1,
      185, 188, 187, -1,
      187, 188, 46, -1,
      187, 46, 50, -1,
      189, 38, 136, -1,
      190, 191, 192, -1,
      193, 190, 194, -1,
      32, 193, 195, -1,
      32, 195, 86, -1,
      86, 195, 196, -1,
      86, 196, 88, -1,
      189, 136, 197, -1,
      197, 136, 135, -1,
      197, 135, 198, -1,
      198, 135, 131, -1,
      198, 131, 199, -1,
      88, 196, 90, -1,
      90, 196, 200, -1,
      90, 200, 92, -1,
      131, 129, 199, -1,
      199, 129, 128, -1,
      199, 128, 201, -1,
      92, 200, 94, -1,
      94, 200, 202, -1,
      94, 202, 95, -1,
      128, 126, 201, -1,
      201, 126, 121, -1,
      201, 121, 203, -1,
      95, 202, 97, -1,
      97, 202, 204, -1,
      97, 204, 99, -1,
      121, 124, 203, -1,
      203, 124, 117, -1,
      203, 117, 205, -1,
      99, 204, 102, -1,
      102, 204, 206, -1,
      102, 206, 103, -1,
      116, 207, 113, -1,
      113, 207, 205, -1,
      113, 205, 120, -1,
      120, 205, 117, -1,
      67, 208, 207, -1,
      207, 208, 209, -1,
      207, 209, 205, -1,
      205, 209, 210, -1,
      205, 210, 203, -1,
      203, 210, 211, -1,
      203, 211, 201, -1,
      201, 211, 212, -1,
      201, 212, 199, -1,
      199, 212, 213, -1,
      199, 213, 198, -1,
      198, 213, 214, -1,
      198, 214, 197, -1,
      197, 214, 215, -1,
      197, 215, 189, -1,
      67, 216, 208, -1,
      208, 216, 217, -1,
      208, 217, 209, -1,
      209, 217, 218, -1,
      209, 218, 210, -1,
      210, 218, 219, -1,
      210, 219, 211, -1,
      211, 219, 220, -1,
      211, 220, 212, -1,
      212, 220, 221, -1,
      212, 221, 213, -1,
      213, 221, 192, -1,
      213, 192, 214, -1,
      214, 192, 191, -1,
      214, 191, 215, -1,
      116, 111, 207, -1,
      207, 111, 67, -1,
      67, 110, 222, -1,
      222, 110, 107, -1,
      222, 107, 206, -1,
      206, 107, 106, -1,
      206, 106, 103, -1,
      193, 194, 195, -1,
      195, 194, 223, -1,
      195, 223, 196, -1,
      196, 223, 224, -1,
      196, 224, 200, -1,
      200, 224, 225, -1,
      200, 225, 202, -1,
      202, 225, 226, -1,
      202, 226, 204, -1,
      204, 226, 227, -1,
      204, 227, 206, -1,
      206, 227, 228, -1,
      206, 228, 222, -1,
      222, 228, 67, -1,
      190, 192, 194, -1,
      194, 192, 221, -1,
      194, 221, 223, -1,
      223, 221, 220, -1,
      223, 220, 224, -1,
      224, 220, 219, -1,
      224, 219, 225, -1,
      225, 219, 218, -1,
      225, 218, 226, -1,
      226, 218, 217, -1,
      226, 217, 227, -1,
      227, 217, 216, -1,
      227, 216, 228, -1,
      228, 216, 67, -1,
      229, 33, 85, -1,
      230, 231, 232, -1,
      233, 230, 234, -1,
      28, 233, 235, -1,
      28, 235, 138, -1,
      138, 235, 236, -1,
      138, 236, 139, -1,
      229, 85, 237, -1,
      237, 85, 87, -1,
      237, 87, 238, -1,
      238, 87, 89, -1,
      238, 89, 239, -1,
      139, 236, 141, -1,
      141, 236, 240, -1,
      141, 240, 144, -1,
      89, 91, 239, -1,
      239, 91, 93, -1,
      239, 93, 241, -1,
      144, 240, 146, -1,
      146, 240, 242, -1,
      146, 242, 148, -1,
      93, 96, 241, -1,
      241, 96, 98, -1,
      241, 98, 243, -1,
      148, 242, 150, -1,
      150, 242, 244, -1,
      150, 244, 151, -1,
      98, 100, 243, -1,
      243, 100, 101, -1,
      243, 101, 245, -1,
      151, 244, 154, -1,
      154, 244, 246, -1,
      154, 246, 155, -1,
      108, 247, 105, -1,
      105, 247, 245, -1,
      105, 245, 104, -1,
      104, 245, 101, -1,
      63, 248, 247, -1,
      247, 248, 249, -1,
      247, 249, 245, -1,
      245, 249, 250, -1,
      245, 250, 243, -1,
      243, 250, 251, -1,
      243, 251, 241, -1,
      241, 251, 252, -1,
      241, 252, 239, -1,
      239, 252, 253, -1,
      239, 253, 238, -1,
      238, 253, 254, -1,
      238, 254, 237, -1,
      237, 254, 255, -1,
      237, 255, 229, -1,
      63, 256, 248, -1,
      248, 256, 257, -1,
      248, 257, 249, -1,
      249, 257, 258, -1,
      249, 258, 250, -1,
      250, 258, 259, -1,
      250, 259, 251, -1,
      251, 259, 260, -1,
      251, 260, 252, -1,
      252, 260, 261, -1,
      252, 261, 253, -1,
      253, 261, 232, -1,
      253, 232, 254, -1,
      254, 232, 231, -1,
      254, 231, 255, -1,
      108, 109, 247, -1,
      247, 109, 63, -1,
      63, 162, 262, -1,
      262, 162, 159, -1,
      262, 159, 246, -1,
      246, 159, 158, -1,
      246, 158, 155, -1,
      233, 234, 235, -1,
      235, 234, 263, -1,
      235, 263, 236, -1,
      236, 263, 264, -1,
      236, 264, 240, -1,
      240, 264, 265, -1,
      240, 265, 242, -1,
      242, 265, 266, -1,
      242, 266, 244, -1,
      244, 266, 267, -1,
      244, 267, 246, -1,
      246, 267, 268, -1,
      246, 268, 262, -1,
      262, 268, 63, -1,
      230, 232, 234, -1,
      234, 232, 261, -1,
      234, 261, 263, -1,
      263, 261, 260, -1,
      263, 260, 264, -1,
      264, 260, 259, -1,
      264, 259, 265, -1,
      265, 259, 258, -1,
      265, 258, 266, -1,
      266, 258, 257, -1,
      266, 257, 267, -1,
      267, 257, 256, -1,
      267, 256, 268, -1,
      268, 256, 63, -1,
      32, 34, 269, -1,
      32, 269, 193, -1,
      193, 269, 270, -1,
      193, 270, 190, -1,
      190, 270, 271, -1,
      190, 271, 191, -1,
      191, 271, 272, -1,
      191, 272, 215, -1,
      215, 272, 273, -1,
      215, 273, 189, -1,
      189, 273, 36, -1,
      189, 36, 38, -1,
      28, 30, 274, -1,
      28, 274, 233, -1,
      233, 274, 275, -1,
      233, 275, 230, -1,
      230, 275, 276, -1,
      230, 276, 231, -1,
      231, 276, 277, -1,
      231, 277, 255, -1,
      255, 277, 278, -1,
      255, 278, 229, -1,
      229, 278, 35, -1,
      229, 35, 33, -1,
      34, 35, 279, -1,
      279, 35, 280, -1,
      279, 280, 281, -1,
      281, 280, 282, -1,
      281, 282, 283, -1,
      283, 282, 284, -1,
      283, 284, 285, -1,
      285, 284, 286, -1,
      285, 286, 287, -1,
      287, 286, 288, -1,
      287, 288, 16, -1,
      16, 288, 17, -1,
      27, 289, 4, -1,
      4, 289, 290, -1,
      4, 290, 5, -1,
      5, 290, 291, -1,
      5, 291, 6, -1,
      6, 291, 292, -1,
      6, 292, 7, -1,
      7, 292, 293, -1,
      7, 293, 15, -1,
      15, 293, 294, -1,
      15, 294, 16, -1,
      16, 294, 287, -1,
      289, 295, 290, -1,
      290, 295, 296, -1,
      290, 296, 291, -1,
      291, 296, 297, -1,
      291, 297, 292, -1,
      292, 297, 298, -1,
      292, 298, 293, -1,
      293, 298, 299, -1,
      293, 299, 294, -1,
      294, 299, 300, -1,
      294, 300, 287, -1,
      287, 300, 285, -1,
      295, 301, 296, -1,
      296, 301, 302, -1,
      296, 302, 297, -1,
      297, 302, 303, -1,
      297, 303, 298, -1,
      298, 303, 304, -1,
      298, 304, 299, -1,
      299, 304, 305, -1,
      299, 305, 300, -1,
      300, 305, 306, -1,
      300, 306, 285, -1,
      285, 306, 283, -1,
      301, 307, 302, -1,
      302, 307, 308, -1,
      302, 308, 303, -1,
      303, 308, 309, -1,
      303, 309, 304, -1,
      304, 309, 310, -1,
      304, 310, 305, -1,
      305, 310, 311, -1,
      305, 311, 306, -1,
      306, 311, 312, -1,
      306, 312, 283, -1,
      283, 312, 281, -1,
      307, 313, 308, -1,
      308, 313, 314, -1,
      308, 314, 309, -1,
      309, 314, 315, -1,
      309, 315, 310, -1,
      310, 315, 316, -1,
      310, 316, 311, -1,
      311, 316, 317, -1,
      311, 317, 312, -1,
      312, 317, 318, -1,
      312, 318, 281, -1,
      281, 318, 279, -1,
      313, 36, 314, -1,
      314, 36, 273, -1,
      314, 273, 315, -1,
      315, 273, 272, -1,
      315, 272, 316, -1,
      316, 272, 271, -1,
      316, 271, 317, -1,
      317, 271, 270, -1,
      317, 270, 318, -1,
      318, 270, 269, -1,
      318, 269, 279, -1,
      279, 269, 34, -1,
      319, 41, 163, -1,
      320, 321, 322, -1,
      323, 320, 324, -1,
      39, 323, 325, -1,
      39, 325, 133, -1,
      133, 325, 326, -1,
      133, 326, 134, -1,
      319, 163, 327, -1,
      327, 163, 165, -1,
      327, 165, 328, -1,
      328, 165, 167, -1,
      328, 167, 329, -1,
      134, 326, 132, -1,
      132, 326, 330, -1,
      132, 330, 130, -1,
      167, 169, 329, -1,
      329, 169, 171, -1,
      329, 171, 331, -1,
      130, 330, 127, -1,
      127, 330, 332, -1,
      127, 332, 125, -1,
      171, 173, 331, -1,
      331, 173, 175, -1,
      331, 175, 333, -1,
      125, 332, 122, -1,
      122, 332, 334, -1,
      122, 334, 123, -1,
      175, 178, 333, -1,
      333, 178, 179, -1,
      333, 179, 335, -1,
      123, 334, 118, -1,
      118, 334, 336, -1,
      118, 336, 119, -1,
      186, 337, 183, -1,
      183, 337, 335, -1,
      183, 335, 182, -1,
      182, 335, 179, -1,
      50, 338, 337, -1,
      337, 338, 339, -1,
      337, 339, 335, -1,
      335, 339, 340, -1,
      335, 340, 333, -1,
      333, 340, 341, -1,
      333, 341, 331, -1,
      331, 341, 342, -1,
      331, 342, 329, -1,
      329, 342, 343, -1,
      329, 343, 328, -1,
      328, 343, 344, -1,
      328, 344, 327, -1,
      327, 344, 345, -1,
      327, 345, 319, -1,
      50, 346, 338, -1,
      338, 346, 347, -1,
      338, 347, 339, -1,
      339, 347, 348, -1,
      339, 348, 340, -1,
      340, 348, 349, -1,
      340, 349, 341, -1,
      341, 349, 350, -1,
      341, 350, 342, -1,
      342, 350, 351, -1,
      342, 351, 343, -1,
      343, 351, 322, -1,
      343, 322, 344, -1,
      344, 322, 321, -1,
      344, 321, 345, -1,
      186, 187, 337, -1,
      337, 187, 50, -1,
      50, 112, 352, -1,
      352, 112, 115, -1,
      352, 115, 336, -1,
      336, 115, 114, -1,
      336, 114, 119, -1,
      323, 324, 325, -1,
      325, 324, 353, -1,
      325, 353, 326, -1,
      326, 353, 354, -1,
      326, 354, 330, -1,
      330, 354, 355, -1,
      330, 355, 332, -1,
      332, 355, 356, -1,
      332, 356, 334, -1,
      334, 356, 357, -1,
      334, 357, 336, -1,
      336, 357, 358, -1,
      336, 358, 352, -1,
      352, 358, 50, -1,
      320, 322, 324, -1,
      324, 322, 351, -1,
      324, 351, 353, -1,
      353, 351, 350, -1,
      353, 350, 354, -1,
      354, 350, 349, -1,
      354, 349, 355, -1,
      355, 349, 348, -1,
      355, 348, 356, -1,
      356, 348, 347, -1,
      356, 347, 357, -1,
      357, 347, 346, -1,
      357, 346, 358, -1,
      358, 346, 50, -1,
      359, 29, 137, -1,
      360, 361, 362, -1,
      363, 360, 364, -1,
      40, 363, 365, -1,
      40, 365, 164, -1,
      164, 365, 366, -1,
      164, 366, 166, -1,
      359, 137, 367, -1,
      367, 137, 140, -1,
      367, 140, 368, -1,
      368, 140, 142, -1,
      368, 142, 369, -1,
      166, 366, 168, -1,
      168, 366, 370, -1,
      168, 370, 170, -1,
      142, 143, 369, -1,
      369, 143, 145, -1,
      369, 145, 371, -1,
      170, 370, 172, -1,
      172, 370, 372, -1,
      172, 372, 174, -1,
      145, 147, 371, -1,
      371, 147, 149, -1,
      371, 149, 373, -1,
      174, 372, 176, -1,
      176, 372, 374, -1,
      176, 374, 177, -1,
      149, 152, 373, -1,
      373, 152, 153, -1,
      373, 153, 375, -1,
      177, 374, 180, -1,
      180, 374, 376, -1,
      180, 376, 181, -1,
      160, 377, 157, -1,
      157, 377, 375, -1,
      157, 375, 156, -1,
      156, 375, 153, -1,
      46, 378, 377, -1,
      377, 378, 379, -1,
      377, 379, 375, -1,
      375, 379, 380, -1,
      375, 380, 373, -1,
      373, 380, 381, -1,
      373, 381, 371, -1,
      371, 381, 382, -1,
      371, 382, 369, -1,
      369, 382, 383, -1,
      369, 383, 368, -1,
      368, 383, 384, -1,
      368, 384, 367, -1,
      367, 384, 385, -1,
      367, 385, 359, -1,
      46, 386, 378, -1,
      378, 386, 387, -1,
      378, 387, 379, -1,
      379, 387, 388, -1,
      379, 388, 380, -1,
      380, 388, 389, -1,
      380, 389, 381, -1,
      381, 389, 390, -1,
      381, 390, 382, -1,
      382, 390, 391, -1,
      382, 391, 383, -1,
      383, 391, 362, -1,
      383, 362, 384, -1,
      384, 362, 361, -1,
      384, 361, 385, -1,
      160, 161, 377, -1,
      377, 161, 46, -1,
      46, 188, 392, -1,
      392, 188, 185, -1,
      392, 185, 376, -1,
      376, 185, 184, -1,
      376, 184, 181, -1,
      363, 364, 365, -1,
      365, 364, 393, -1,
      365, 393, 366, -1,
      366, 393, 394, -1,
      366, 394, 370, -1,
      370, 394, 395, -1,
      370, 395, 372, -1,
      372, 395, 396, -1,
      372, 396, 374, -1,
      374, 396, 397, -1,
      374, 397, 376, -1,
      376, 397, 398, -1,
      376, 398, 392, -1,
      392, 398, 46, -1,
      360, 362, 364, -1,
      364, 362, 391, -1,
      364, 391, 393, -1,
      393, 391, 390, -1,
      393, 390, 394, -1,
      394, 390, 389, -1,
      394, 389, 395, -1,
      395, 389, 388, -1,
      395, 388, 396, -1,
      396, 388, 387, -1,
      396, 387, 397, -1,
      397, 387, 386, -1,
      397, 386, 398, -1,
      398, 386, 46, -1,
      17, 288, 0, -1,
      0, 288, 399, -1,
      0, 399, 1, -1,
      1, 399, 400, -1,
      1, 400, 2, -1,
      2, 400, 401, -1,
      2, 401, 3, -1,
      3, 401, 402, -1,
      3, 402, 8, -1,
      8, 402, 403, -1,
      8, 403, 9, -1,
      9, 403, 404, -1,
      288, 286, 399, -1,
      399, 286, 405, -1,
      399, 405, 400, -1,
      400, 405, 406, -1,
      400, 406, 401, -1,
      401, 406, 407, -1,
      401, 407, 402, -1,
      402, 407, 408, -1,
      402, 408, 403, -1,
      403, 408, 409, -1,
      403, 409, 404, -1,
      404, 409, 410, -1,
      286, 284, 405, -1,
      405, 284, 411, -1,
      405, 411, 406, -1,
      406, 411, 412, -1,
      406, 412, 407, -1,
      407, 412, 413, -1,
      407, 413, 408, -1,
      408, 413, 414, -1,
      408, 414, 409, -1,
      409, 414, 415, -1,
      409, 415, 410, -1,
      410, 415, 416, -1,
      284, 282, 411, -1,
      411, 282, 417, -1,
      411, 417, 412, -1,
      412, 417, 418, -1,
      412, 418, 413, -1,
      413, 418, 419, -1,
      413, 419, 414, -1,
      414, 419, 420, -1,
      414, 420, 415, -1,
      415, 420, 421, -1,
      415, 421, 416, -1,
      416, 421, 422, -1,
      282, 280, 417, -1,
      417, 280, 423, -1,
      417, 423, 418, -1,
      418, 423, 424, -1,
      418, 424, 419, -1,
      419, 424, 425, -1,
      419, 425, 420, -1,
      420, 425, 426, -1,
      420, 426, 421, -1,
      421, 426, 427, -1,
      421, 427, 422, -1,
      422, 427, 428, -1,
      280, 35, 423, -1,
      423, 35, 278, -1,
      423, 278, 424, -1,
      424, 278, 277, -1,
      424, 277, 425, -1,
      425, 277, 276, -1,
      425, 276, 426, -1,
      426, 276, 275, -1,
      426, 275, 427, -1,
      427, 275, 274, -1,
      427, 274, 428, -1,
      428, 274, 30, -1,
      37, 36, 429, -1,
      429, 36, 313, -1,
      429, 313, 430, -1,
      430, 313, 307, -1,
      430, 307, 431, -1,
      431, 307, 301, -1,
      431, 301, 432, -1,
      432, 301, 295, -1,
      432, 295, 433, -1,
      433, 295, 289, -1,
      433, 289, 26, -1,
      26, 289, 27, -1,
      39, 37, 434, -1,
      39, 434, 323, -1,
      323, 434, 435, -1,
      323, 435, 320, -1,
      320, 435, 436, -1,
      320, 436, 321, -1,
      321, 436, 437, -1,
      321, 437, 345, -1,
      345, 437, 438, -1,
      345, 438, 319, -1,
      319, 438, 43, -1,
      319, 43, 41, -1,
      40, 42, 439, -1,
      40, 439, 363, -1,
      363, 439, 440, -1,
      363, 440, 360, -1,
      360, 440, 441, -1,
      360, 441, 361, -1,
      361, 441, 442, -1,
      361, 442, 385, -1,
      385, 442, 443, -1,
      385, 443, 359, -1,
      359, 443, 31, -1,
      359, 31, 29, -1,
      30, 31, 428, -1,
      428, 31, 444, -1,
      428, 444, 422, -1,
      422, 444, 445, -1,
      422, 445, 416, -1,
      416, 445, 446, -1,
      416, 446, 410, -1,
      410, 446, 447, -1,
      410, 447, 404, -1,
      404, 447, 448, -1,
      404, 448, 9, -1,
      9, 448, 10, -1,
      24, 449, 18, -1,
      18, 449, 450, -1,
      18, 450, 19, -1,
      19, 450, 451, -1,
      19, 451, 20, -1,
      20, 451, 452, -1,
      20, 452, 21, -1,
      21, 452, 453, -1,
      21, 453, 25, -1,
      25, 453, 454, -1,
      25, 454, 26, -1,
      26, 454, 433, -1,
      449, 455, 450, -1,
      450, 455, 456, -1,
      450, 456, 451, -1,
      451, 456, 457, -1,
      451, 457, 452, -1,
      452, 457, 458, -1,
      452, 458, 453, -1,
      453, 458, 459, -1,
      453, 459, 454, -1,
      454, 459, 460, -1,
      454, 460, 433, -1,
      433, 460, 432, -1,
      455, 461, 456, -1,
      456, 461, 462, -1,
      456, 462, 457, -1,
      457, 462, 463, -1,
      457, 463, 458, -1,
      458, 463, 464, -1,
      458, 464, 459, -1,
      459, 464, 465, -1,
      459, 465, 460, -1,
      460, 465, 466, -1,
      460, 466, 432, -1,
      432, 466, 431, -1,
      461, 467, 462, -1,
      462, 467, 468, -1,
      462, 468, 463, -1,
      463, 468, 469, -1,
      463, 469, 464, -1,
      464, 469, 470, -1,
      464, 470, 465, -1,
      465, 470, 471, -1,
      465, 471, 466, -1,
      466, 471, 472, -1,
      466, 472, 431, -1,
      431, 472, 430, -1,
      467, 473, 468, -1,
      468, 473, 474, -1,
      468, 474, 469, -1,
      469, 474, 475, -1,
      469, 475, 470, -1,
      470, 475, 476, -1,
      470, 476, 471, -1,
      471, 476, 477, -1,
      471, 477, 472, -1,
      472, 477, 478, -1,
      472, 478, 430, -1,
      430, 478, 429, -1,
      473, 43, 474, -1,
      474, 43, 438, -1,
      474, 438, 475, -1,
      475, 438, 437, -1,
      475, 437, 476, -1,
      476, 437, 436, -1,
      476, 436, 477, -1,
      477, 436, 435, -1,
      477, 435, 478, -1,
      478, 435, 434, -1,
      478, 434, 429, -1,
      429, 434, 37, -1,
      10, 448, 11, -1,
      11, 448, 479, -1,
      11, 479, 12, -1,
      12, 479, 480, -1,
      12, 480, 13, -1,
      13, 480, 481, -1,
      13, 481, 14, -1,
      14, 481, 482, -1,
      14, 482, 22, -1,
      22, 482, 483, -1,
      22, 483, 23, -1,
      23, 483, 484, -1,
      448, 447, 479, -1,
      479, 447, 485, -1,
      479, 485, 480, -1,
      480, 485, 486, -1,
      480, 486, 481, -1,
      481, 486, 487, -1,
      481, 487, 482, -1,
      482, 487, 488, -1,
      482, 488, 483, -1,
      483, 488, 489, -1,
      483, 489, 484, -1,
      484, 489, 490, -1,
      447, 446, 485, -1,
      485, 446, 491, -1,
      485, 491, 486, -1,
      486, 491, 492, -1,
      486, 492, 487, -1,
      487, 492, 493, -1,
      487, 493, 488, -1,
      488, 493, 494, -1,
      488, 494, 489, -1,
      489, 494, 495, -1,
      489, 495, 490, -1,
      490, 495, 496, -1,
      446, 445, 491, -1,
      491, 445, 497, -1,
      491, 497, 492, -1,
      492, 497, 498, -1,
      492, 498, 493, -1,
      493, 498, 499, -1,
      493, 499, 494, -1,
      494, 499, 500, -1,
      494, 500, 495, -1,
      495, 500, 501, -1,
      495, 501, 496, -1,
      496, 501, 502, -1,
      445, 444, 497, -1,
      497, 444, 503, -1,
      497, 503, 498, -1,
      498, 503, 504, -1,
      498, 504, 499, -1,
      499, 504, 505, -1,
      499, 505, 500, -1,
      500, 505, 506, -1,
      500, 506, 501, -1,
      501, 506, 507, -1,
      501, 507, 502, -1,
      502, 507, 508, -1,
      444, 31, 503, -1,
      503, 31, 443, -1,
      503, 443, 504, -1,
      504, 443, 442, -1,
      504, 442, 505, -1,
      505, 442, 441, -1,
      505, 441, 506, -1,
      506, 441, 440, -1,
      506, 440, 507, -1,
      507, 440, 439, -1,
      507, 439, 508, -1,
      508, 439, 42, -1,
      42, 43, 508, -1,
      508, 43, 473, -1,
      508, 473, 502, -1,
      502, 473, 467, -1,
      502, 467, 496, -1,
      496, 467, 461, -1,
      496, 461, 490, -1,
      490, 461, 455, -1,
      490, 455, 484, -1,
      484, 455, 449, -1,
      484, 449, 23, -1,
      23, 449, 24, -1,
    ]
  }
}

Shape {
  appearance Appearance {
    material Material {
      diffuseColor 0.2078 0.2078 0.2078
      specularColor 0.0157 0.0157 0.0157
      ambientIntensity 0.2
      transparency 0.0000
      shininess 0.5
    }
  }
  geometry IndexedFaceSet {
    ccw TRUE
    solid FALSE
    coord DEF co Coordinate {
      point [
        0.185606 -0.065579 0.366142,
        0.171853 -0.096003 0.366142,
        0.153157 -0.123665 0.366142,
        0.130054 -0.147770 0.366142,
        -0.025004 -0.195256 0.366142,
        0.008355 -0.196673 0.366142,
        0.041472 -0.192432 0.366142,
        -0.057642 -0.188222 0.366142,
        -0.088623 -0.175773 0.366142,
        -0.117054 -0.158267 0.366142,
        0.103210 -0.167624 0.366142,
        0.073397 -0.182656 0.366142,
        -0.142117 -0.136208 0.366142,
        -0.163093 -0.110231 0.366142,
        -0.179376 -0.081083 0.366142,
        0.153157 0.123665 0.366142,
        0.171853 0.096003 0.366142,
        0.185606 0.065579 0.366142,
        -0.190498 0.049602 0.366142,
        -0.179376 0.081083 0.366142,
        -0.163093 0.110231 0.366142,
        -0.142117 0.136208 0.366142,
        0.194019 0.033268 0.366142,
        0.196850 0.000000 0.366142,
        0.194019 -0.033268 0.366142,
        -0.190498 -0.049602 0.366142,
        -0.196141 -0.016694 0.366142,
        -0.196141 0.016694 0.366142,
        -0.117054 0.158267 0.366142,
        -0.088623 0.175773 0.366142,
        -0.057642 0.188222 0.366142,
        0.073397 0.182656 0.366142,
        0.103210 0.167624 0.366142,
        0.130054 0.147770 0.366142,
        -0.025004 0.195256 0.366142,
        0.008355 0.196673 0.366142,
        0.041472 0.192432 0.366142,
        0.196850 -0.000000 0.326772,
        0.194019 0.033268 0.326772,
        0.185606 0.065579 0.326772,
        0.171853 0.096003 0.326772,
        0.153157 0.123665 0.326772,
        0.130054 0.147770 0.326772,
        0.103210 0.167624 0.326772,
        0.073397 0.182656 0.326772,
        0.041472 0.192432 0.326772,
        0.008355 0.196673 0.326772,
        -0.025004 0.195256 0.326772,
        -0.057642 0.188222 0.326772,
        -0.088623 0.175773 0.326772,
        -0.117054 0.158267 0.326772,
        -0.142117 0.136208 0.326772,
        -0.163093 0.110231 0.326772,
        -0.179376 0.081083 0.326772,
        -0.190498 0.049602 0.326772,
        -0.196141 0.016694 0.326772,
        -0.196141 -0.016694 0.326772,
        -0.190498 -0.049602 0.326772,
        -0.179376 -0.081083 0.326772,
        -0.163093 -0.110231 0.326772,
        -0.142117 -0.136208 0.326772,
        -0.117054 -0.158267 0.326772,
        -0.088623 -0.175773 0.326772,
        -0.057642 -0.188222 0.326772,
        -0.025004 -0.195256 0.326772,
        0.008355 -0.196673 0.326772,
        0.041472 -0.192432 0.326772,
        0.073397 -0.182656 0.326772,
        0.103210 -0.167624 0.326772,
        0.130054 -0.147770 0.326772,
        0.153157 -0.123665 0.326772,
        0.171853 -0.096003 0.326772,
        0.185606 -0.065579 0.326772,
        0.194019 -0.033268 0.326772,
        0.000000 0.000000 0.326772,
      ]
    }
    coordIndex [
      37, 23, 38, -1,
      38, 23, 22, -1,
      38, 22, 39, -1,
      39, 22, 17, -1,
      39, 17, 40, -1,
      40, 17, 16, -1,
      40, 16, 41, -1,
      41, 16, 15, -1,
      41, 15, 42, -1,
      42, 15, 33, -1,
      42, 33, 43, -1,
      43, 33, 32, -1,
      43, 32, 44, -1,
      44, 32, 31, -1,
      44, 31, 45, -1,
      45, 31, 36, -1,
      45, 36, 46, -1,
      46, 36, 35, -1,
      46, 35, 47, -1,
      47, 35, 34, -1,
      47, 34, 48, -1,
      48, 34, 30, -1,
      48, 30, 49, -1,
      49, 30, 29, -1,
      49, 29, 50, -1,
      50, 29, 28, -1,
      50, 28, 51, -1,
      51, 28, 21, -1,
      51, 21, 52, -1,
      52, 21, 20, -1,
      52, 20, 53, -1,
      53, 20, 19, -1,
      53, 19, 54, -1,
      54, 19, 18, -1,
      54, 18, 55, -1,
      55, 18, 27, -1,
      55, 27, 56, -1,
      56, 27, 26, -1,
      56, 26, 57, -1,
      57, 26, 25, -1,
      57, 25, 58, -1,
      58, 25, 14, -1,
      58, 14, 59, -1,
      59, 14, 13, -1,
      59, 13, 60, -1,
      60, 13, 12, -1,
      60, 12, 61, -1,
      61, 12, 9, -1,
      61, 9, 62, -1,
      62, 9, 8, -1,
      62, 8, 63, -1,
      63, 8, 7, -1,
      63, 7, 64, -1,
      64, 7, 4, -1,
      64, 4, 65, -1,
      65, 4, 5, -1,
      65, 5, 66, -1,
      66, 5, 6, -1,
      66, 6, 67, -1,
      67, 6, 11, -1,
      67, 11, 68, -1,
      68, 11, 10, -1,
      68, 10, 69, -1,
      69, 10, 3, -1,
      69, 3, 70, -1,
      70, 3, 2, -1,
      70, 2, 71, -1,
      71, 2, 1, -1,
      71, 1, 72, -1,
      72, 1, 0, -1,
      72, 0, 73, -1,
      73, 0, 24, -1,
      73, 24, 37, -1,
      37, 24, 23, -1,
      37, 38, 74, -1,
      71, 72, 74, -1,
      74, 72, 73, -1,
      74, 73, 37, -1,
      68, 69, 74, -1,
      74, 69, 70, -1,
      74, 70, 71, -1,
      65, 66, 74, -1,
      74, 66, 67, -1,
      74, 67, 68, -1,
      62, 63, 74, -1,
      74, 63, 64, -1,
      74, 64, 65, -1,
      59, 60, 74, -1,
      74, 60, 61, -1,
      74, 61, 62, -1,
      56, 57, 74, -1,
      74, 57, 58, -1,
      74, 58, 59, -1,
      53, 54, 74, -1,
      74, 54, 55, -1,
      74, 55, 56, -1,
      50, 51, 74, -1,
      74, 51, 52, -1,
      74, 52, 53, -1,
      47, 48, 74, -1,
      74, 48, 49, -1,
      74, 49, 50, -1,
      44, 45, 74, -1,
      74, 45, 46, -1,
      74, 46, 47, -1,
      41, 42, 74, -1,
      74, 42, 43, -1,
      74, 43, 44, -1,
      38, 39, 74, -1,
      74, 39, 40, -1,
      74, 40, 41, -1,
    ]
  }
}

Shape {
  appearance Appearance {
    material Material {
      diffuseColor 0.6667 0.6667 0.6667
      specularColor 0.4667 0.4667 0.4667
      ambientIntensity 0.2
      transparency 0.0000
      shininess 0.5
    }
  }
  geometry IndexedFaceSet {
    ccw TRUE
    solid FALSE
    coord DEF co Coordinate {
      point [
        -0.151575 -0.282480 0.000000,
        -0.151575 -0.354331 0.000000,
        -0.045276 -0.354331 0.000000,
        -0.151575 -0.242126 0.000000,
        -0.045276 -0.242126 0.000000,
        0.045276 0.302165 0.000000,
        0.045276 0.354331 0.000000,
        0.151575 0.354331 0.000000,
        0.151575 0.302165 0.000000,
        0.151575 0.242126 0.000000,
        0.045276 0.242126 0.000000,
        0.354331 0.192913 0.000000,
        0.354331 0.143701 0.000000,
        0.242126 0.143701 0.000000,
        0.242126 0.192913 0.000000,
        0.242126 0.250000 0.000000,
        0.354331 0.250000 0.000000,
        -0.242126 0.143701 0.000000,
        -0.278543 0.143701 0.000000,
        -0.354331 0.143701 0.000000,
        -0.354331 0.192913 0.000000,
        -0.354331 0.250000 0.000000,
        -0.278543 0.250000 0.000000,
        -0.242126 0.250000 0.000000,
        -0.242126 0.192913 0.000000,
        -0.354331 -0.053150 0.000000,
        -0.354331 0.053150 0.000000,
        -0.278543 0.053150 0.000000,
        -0.242126 0.053150 0.000000,
        -0.242126 -0.053150 0.000000,
        -0.278543 -0.053150 0.000000,
        -0.278543 -0.250000 0.000000,
        -0.242126 -0.250000 0.000000,
        -0.242126 -0.143701 0.000000,
        -0.278543 -0.143701 0.000000,
        -0.354331 -0.143701 0.000000,
        -0.354331 -0.250000 0.000000,
        -0.151575 0.354331 0.000000,
        -0.151575 0.302165 0.000000,
        -0.045276 0.354331 0.000000,
        -0.045276 0.302165 0.000000,
        -0.045276 0.242126 0.000000,
        -0.151575 0.242126 0.000000,
        -0.045276 -0.282480 0.000000,
        0.354331 -0.053150 0.000000,
        0.242126 -0.053150 0.000000,
        0.242126 0.053150 0.000000,
        0.354331 0.053150 0.000000,
        0.151575 -0.242126 0.000000,
        0.045276 -0.242126 0.000000,
        0.045276 -0.282480 0.000000,
        0.045276 -0.354331 0.000000,
        0.151575 -0.354331 0.000000,
        0.151575 -0.282480 0.000000,
        -0.314961 -0.354331 0.000000,
        -0.354331 -0.354331 0.000000,
        -0.354331 -0.314961 0.000000,
        0.242126 0.250000 -0.007874,
        0.242126 0.143701 -0.007874,
        0.354331 0.250000 -0.007874,
        0.354331 0.143701 -0.007874,
        0.242126 0.053150 -0.007874,
        0.242126 -0.053150 -0.007874,
        0.354331 0.053150 -0.007874,
        0.354331 -0.053150 -0.007874,
        -0.242126 0.143701 -0.007874,
        -0.242126 0.250000 -0.007874,
        -0.354331 0.143701 -0.007874,
        -0.354331 0.250000 -0.007874,
        -0.242126 -0.053150 -0.007874,
        -0.242126 0.053150 -0.007874,
        -0.354331 -0.053150 -0.007874,
        -0.354331 0.053150 -0.007874,
        -0.242126 -0.250000 -0.007874,
        -0.242126 -0.143701 -0.007874,
        -0.354331 -0.250000 -0.007874,
        -0.354331 -0.143701 -0.007874,
        0.045276 0.354331 -0.007874,
        0.045276 0.242126 -0.007874,
        0.151575 0.354331 -0.007874,
        0.151575 0.242126 -0.007874,
        -0.045276 0.242126 -0.007874,
        -0.045276 0.354331 -0.007874,
        -0.151575 0.242126 -0.007874,
        -0.151575 0.354331 -0.007874,
        -0.045276 -0.354331 -0.007874,
        -0.045276 -0.242126 -0.007874,
        -0.151575 -0.354331 -0.007874,
        -0.151575 -0.242126 -0.007874,
        0.045276 -0.242126 -0.007874,
        0.045276 -0.354331 -0.007874,
        0.151575 -0.242126 -0.007874,
        0.151575 -0.354331 -0.007874,
        -0.354331 -0.314961 -0.003937,
        -0.354331 -0.354331 -0.003937,
        -0.314961 -0.354331 -0.003937,
      ]
    }
    coordIndex [
      15, 57, 14, -1,
      14, 57, 58, -1,
      14, 58, 13, -1,
      59, 57, 16, -1,
      16, 57, 15, -1,
      12, 60, 11, -1,
      11, 60, 59, -1,
      11, 59, 16, -1,
      58, 60, 13, -1,
      13, 60, 12, -1,
      59, 60, 57, -1,
      57, 60, 58, -1,
      61, 62, 46, -1,
      46, 62, 45, -1,
      63, 61, 47, -1,
      47, 61, 46, -1,
      64, 63, 44, -1,
      44, 63, 47, -1,
      62, 64, 45, -1,
      45, 64, 44, -1,
      63, 64, 61, -1,
      61, 64, 62, -1,
      17, 65, 24, -1,
      24, 65, 66, -1,
      24, 66, 23, -1,
      19, 67, 18, -1,
      18, 67, 65, -1,
      18, 65, 17, -1,
      21, 68, 20, -1,
      20, 68, 67, -1,
      20, 67, 19, -1,
      23, 66, 22, -1,
      22, 66, 68, -1,
      22, 68, 21, -1,
      67, 68, 65, -1,
      65, 68, 66, -1,
      69, 70, 29, -1,
      29, 70, 28, -1,
      25, 71, 30, -1,
      30, 71, 69, -1,
      30, 69, 29, -1,
      72, 71, 26, -1,
      26, 71, 25, -1,
      28, 70, 27, -1,
      27, 70, 72, -1,
      27, 72, 26, -1,
      71, 72, 69, -1,
      69, 72, 70, -1,
      73, 74, 32, -1,
      32, 74, 33, -1,
      36, 75, 31, -1,
      31, 75, 73, -1,
      31, 73, 32, -1,
      76, 75, 35, -1,
      35, 75, 36, -1,
      33, 74, 34, -1,
      34, 74, 76, -1,
      34, 76, 35, -1,
      75, 76, 73, -1,
      73, 76, 74, -1,
      6, 77, 5, -1,
      5, 77, 78, -1,
      5, 78, 10, -1,
      79, 77, 7, -1,
      7, 77, 6, -1,
      9, 80, 8, -1,
      8, 80, 79, -1,
      8, 79, 7, -1,
      78, 80, 10, -1,
      10, 80, 9, -1,
      79, 80, 77, -1,
      77, 80, 78, -1,
      41, 81, 40, -1,
      40, 81, 82, -1,
      40, 82, 39, -1,
      83, 81, 42, -1,
      42, 81, 41, -1,
      37, 84, 38, -1,
      38, 84, 83, -1,
      38, 83, 42, -1,
      82, 84, 39, -1,
      39, 84, 37, -1,
      83, 84, 81, -1,
      81, 84, 82, -1,
      2, 85, 43, -1,
      43, 85, 86, -1,
      43, 86, 4, -1,
      87, 85, 1, -1,
      1, 85, 2, -1,
      3, 88, 0, -1,
      0, 88, 87, -1,
      0, 87, 1, -1,
      86, 88, 4, -1,
      4, 88, 3, -1,
      87, 88, 85, -1,
      85, 88, 86, -1,
      49, 89, 50, -1,
      50, 89, 90, -1,
      50, 90, 51, -1,
      91, 89, 48, -1,
      48, 89, 49, -1,
      52, 92, 53, -1,
      53, 92, 91, -1,
      53, 91, 48, -1,
      90, 92, 51, -1,
      51, 92, 52, -1,
      91, 92, 89, -1,
      89, 92, 90, -1,
      93, 94, 56, -1,
      56, 94, 55, -1,
      95, 93, 54, -1,
      54, 93, 56, -1,
      94, 95, 55, -1,
      55, 95, 54, -1,
      93, 95, 94, -1,
    ]
  }
}
